<svg id="Layer_1" data-name="Layer 1" xmlns="http://www.w3.org/2000/svg" viewBox="0 0 82.01 164.86"><defs><style>.cls-1,.cls-2{fill:#8cb938;}.cls-1{fill-rule:evenodd;}</style></defs><path id="path6292" class="cls-1" d="M58,162.37l1.75.71,1.48-.06.91-.37.28.09-.28.45-1.39.57-.15.2.2.59-.37-.08-.42.39-.91-.17-.34.17-1.22-.14-1.19-.54h-.28l-.43.37-.25-.11-.2.2-.68-.66-.62-.17-1-.62-1.31-1.11-.11-.76-.54-.85-1.53-1.59v-.57l.31-.62,1.08-.62,1.67-.2,1.13.11.32.34.19,2.41.49.85.82.91,2.61.88Zm0,0Z"/><path id="_1" data-name="1" class="cls-2" d="M58,162.37l1.75.71,1.48-.06.91-.37.28.09-.28.45-1.39.57-.15.2.2.59-.37-.08-.42.39-.91-.17-.34.17-1.22-.14-1.19-.54h-.28l-.43.37-.25-.11-.2.2-.68-.66-.62-.17-1-.62-1.31-1.11-.11-.76-.54-.85-1.53-1.59v-.57l.31-.62,1.08-.62,1.67-.2,1.13.11.32.34.19,2.41.49.85.82.91,2.61.88m0,0Z"/><path id="path6352" class="cls-1" d="M12.5,29.59l1.39.09,1.11.88.82,0,1.44.48,1.22-.08,1.76-.63.42,1.19,1.2,1.62.59,1.13.62,1.93-.59,3.94-.74,1.59-.71.76,0,.2-.37.23-.79,1.19-1.08.57-.56.7-.4.23L16,45.81l-1.42-.23-1.53.57-1.33.31-.88,0-.88.28-1.31.12L7.48,46.6l-1.3-1.13-1.79-.74L3,44.87l-1.5.51H.26L0,44l.31-.71,1.48-1,1.3.19.25-.19L3.23,42l.28.05.54-.82h.57l.06-.45.51-.06.08-.25h.31l.09.25.48-.22.45-.83,1.11-.51,0-.62.31-.94.48-.34.37-1-.06-.6.32.06.65-.31.79.06.2-.17-.17-.29.65-.2.31-2.26-.79-1.56.34-.71.34.28.28-.25.29,0-.29-.29.06-.56.68,0Zm0,0Z"/><path id="_1-2" data-name="1" class="cls-2" d="M12.5,29.59l1.39.09,1.11.88.82,0,1.44.48,1.22-.08,1.76-.63.42,1.19,1.2,1.62.59,1.13.62,1.93-.59,3.94-.74,1.59-.71.76,0,.2-.37.23-.79,1.19-1.08.57-.56.7-.4.23L16,45.81l-1.42-.23-1.53.57-1.33.31-.88,0-.88.28-1.31.12L7.48,46.6l-1.3-1.13-1.79-.74L3,44.87l-1.5.51H.26L0,44l.31-.71,1.48-1,1.3.19.25-.19L3.23,42l.28.05.54-.82h.57l.06-.45.51-.06.08-.25h.31l.09.25.48-.22.45-.83,1.11-.51,0-.62.31-.94.48-.34.37-1-.06-.6.32.06.65-.31.79.06.2-.17-.17-.29.65-.2.31-2.26-.79-1.56.34-.71.34.28.28-.25.29,0-.29-.29.06-.56.68,0m0,0Z"/><path id="path6384" class="cls-1" d="M13,21.49l.31,0,.2.52-.2.68-.45.59-1.3.54-1.39-.06,0-.45.42-.48.74-.57.59-.08.83-.71Zm0,0Z"/><path id="_1-3" data-name="1" class="cls-2" d="M13,21.49l.31,0,.2.52-.2.68-.45.59-1.3.54-1.39-.06,0-.45.42-.48.74-.57.59-.08.83-.71H13m0,0Z"/><path id="path6396" class="cls-1" d="M15.76,1.13l0,.23-1,1.47L14,5.39,13.12,6l-.56.82-.06,1,.17.51-.45.88.45,1.1-.45,1.79-.26.37L12.05,14l-.2.71-.74.73-.76.12-3.18-.37-.59-.51-1-1.51-1.1-1-.62-.22L3.2,9.75l.29-1.61.31-.32L4.31,8,5.47,5.13l.88-1,2.13-.82L10,3l2.21-1.11,1.7-.34L14.8.94l.51.25.25-.14,0-.23.2.31Zm0,0Z"/><path id="_1-4" data-name="1" class="cls-2" d="M15.76,1.13l0,.23-1,1.47L14,5.39,13.12,6l-.56.82-.06,1,.17.51-.45.88.45,1.1-.45,1.79-.26.37L12.05,14l-.2.71-.74.73-.76.12-3.18-.37-.59-.51-1-1.51-1.1-1-.62-.22L3.2,9.75l.29-1.61.31-.32L4.31,8,5.47,5.13l.88-1,2.13-.82L10,3l2.21-1.11,1.7-.34L14.8.94l.51.25.25-.14,0-.23.2.31m0,0Z"/><path class="cls-1" d="M70.16,46.94l3.51-.37,7-.88c-.29-2.26.65-3.91,1.36-5.75L71.83,26.73,70,22.59l.68-21.37L60.32,0,55.56.74l-4.34.31L47,1.5,42.92,2.81,40.25,4.05l-2.32.2L35,5.39l-3.4,1.92-3.4,2.61-1,.77c.19,7.48,2.21,11.9,5.44,17.77l3.46,11.59.82,2,.91,1.16.28.34,1.08,1,1.44.85L42,46l2.35.48.31,0,2.81-2,2.12-2.36,1.79-2.86,2.44-4.59,1.81-3.29L57,29.93l1.75-1.05.6-.08.65.79L60.29,31a3.23,3.23,0,0,1,.09.94l-.14.82-.54.74-1.39,3.74-1.05,2.83v1.73l3,3.18.14.17.51-.49,1.79-5.81L64.46,35,68,32.91l1.39,4.17.59,3.17-1.05,2-1,1.56-.11,1.68Z"/></svg>