<svg id="Layer_1" data-name="Layer 1" xmlns="http://www.w3.org/2000/svg" viewBox="0 0 46.71 51.84"><defs><style>.cls-1,.cls-2{fill:#8cb938;}.cls-1{fill-rule:evenodd;}</style></defs><path class="cls-1" d="M18.79,14.59C16,17,15,17.31,14.4,20.85c4.59,1.87,2.18.15,5.75,3.86.09,3.43.12,5.89-2.35,8.16-5,1.36-6-3.06-10.69,0C4.45,34.52,2.52,37.18,0,39.08l0,9,2.24,1.25c1.59,1.7.56,1.62,2.66,2.5L7.71,49.4l3.8-1.93,3-1.13,2.12-.17,3-1.34,4.11-1.27L29.05,43a34.54,34.54,0,0,0,5.87-.59c3.12-.29,4.4-1.22,5.59-3.32l1.07-.17,2.13-2.58,1.16-2.49.74-3.06,1.1-5.56L44,13.51l-3.54-3.09L36.65,9.06l-.17-6.18-3.57-.31-.79-1.3L30.81.3c-2.72-1,1.79.51-7.45,2.5Z"/><path id="path6326" class="cls-1" d="M16.75,24.4,16.7,27,16,28l-1.05.42L14.85,26l.26-.28.08-.71.6-.54L16.84,24l-.09.37Zm0,0Z"/><path id="_1" data-name="1" class="cls-2" d="M16.75,24.4,16.7,27,16,28l-1.05.42L14.85,26l.26-.28.08-.71.6-.54L16.84,24l-.09.37m0,0Z"/></svg>