<svg id="Layer_1" data-name="Layer 1" xmlns="http://www.w3.org/2000/svg" viewBox="0 0 124.7 144.08"><defs><style>.cls-1{fill:#8cb938;fill-rule:evenodd;}</style></defs><polygon id="path6350" class="cls-1" points="4.56 48.95 4.31 49.61 2.21 51.56 0.59 52.19 0.09 51.93 0 50.88 0.57 50.37 1.08 49.21 3.66 45.72 4.56 42.75 6.89 39.8 7.29 39.52 7.51 39.77 6.92 41.07 6.04 42.8 5.24 43.8 5.02 45.47 5.07 47.42 4.56 48.95"/><g id="g8381"><polygon id="path8383" class="cls-1" points="13.41 27.69 13.49 28.86 13.07 30.13 10.86 32.63 9.38 33.31 8.62 33.25 8.76 32.51 10.6 29.96 11.73 29.25 12.84 27.75 13.41 27.69"/></g><path class="cls-1" d="M124.64,47.88l-4.28-1.14c-4-5.16-4-3.6-9.64-4.9-2.64-2.18-4.68-4.68-7.43-7.12-1.75-1.53-3.68-2.41-4.47-3.23-1.62-1.67-.34-1.61-2.7-4.19-2.18-2-1.1-1.36-4.31-2.33l-3.65,3.29a5.09,5.09,0,0,1-.34-.62l-.29-5.3-7.34-5.62c-3.88.4-3.54-.14-6.32,2-1.25,1.67-1,1.13-2.38,1.81l-.4.57C64.15,30.27,65.42,34,58.93,33.82c-2.92-3.86.51-1-4.53-7.91,2.24-3.12,3.57-1.53,6.2-5.81-.82-2,.12-3.06-.22-3.4-.51-.49-1.45-.32-4.4-1.65l-7.31-2c-3.34-.42-1.42.79-5.07-.79-2.19-1-2.41-.65-4.11-1.65-.74-.68-.88-2.24-1.42-3.85-.62-1.9-1.53-3.89-1.28-4.57L34.13.45,29.45,0,26.19.54C25.48.68,24.94,1.33,24,2l.56,7c-2.49,1.95-2.26.65-4.36,2.49-1.9,1.65-1.19,2.27-2.5,4.2-3,4.45-2.55,2.24-5,8.36l3.77,2L15,36.48l3.83-2.35,4.39-7.34,2.22.59c7.56,6.52,1.33,16.1-6.58,15.54l-3.46-3c-5.81,1.16-6.49,1.7-8.76,7.23C4.28,53,2,51.45,2.75,56.61c.23.14.57.34.71.45s.45.4.59.51l.8,1.31,3.57.31.17,6.18c3.46,1,5.36,1.81,7.37,4.45l2.69,11.7c-.51,2.3-1.22,6.61-1.84,8.62a8.78,8.78,0,0,1-1.62,3.12c-2.41,3.15-1,1.36-2.75,2.13-.67,1.8-2.78,2.73-5.35,3.26l1.7-.26,10.32,1.22L18.43,121l1.87,4.14,10.17,13.21c-.71,1.84-1.64,3.49-1.36,5.75.29-5.75,2.5-6.94,5.19-11.22l4.76-5,3-4.74L44,120.25l1.9-1.9c4.42-4.54,4.08-7.94,3.15-14.06l-4.45-2.78-6.83,3.06c-.57-4.17-1.51-8,1.33-11.45l5.84-4.93,1-1.71,4.65-.28,6.8-2.72,4.85-4L66.73,75,71,76.68c2.52,2.75.65,2.32,2.72,5,1.64,2.1,1.47.11,3.29,4.82l5.61-2,9.75-4.88c6.66-3.2,3.77-1.7,10.77-2.64l2.44-3.09,4-4.16c1.92-1.79,1.61-2.33,2.91-3.69s2-1.16,3.89-2.83c1.33-1.68,1.73-4.4,3.34-6.35s2.81-1.67,4.94-3.52Z"/></svg>