<svg id="Layer_1" data-name="Layer 1" xmlns="http://www.w3.org/2000/svg" viewBox="0 0 194.17 222.44"><defs><style>.cls-1,.cls-2{fill:#8cb938;}.cls-1{fill-rule:evenodd;}</style></defs><path class="cls-1" d="M0,2.28,5,20.16c1.64,4.65,1.53,6.13,8,7.57l17,4.68,7.77,4.9,6.88,2.87,6,4.16,2.52,2.41,2,5,3,23.3c3.17,5.73,6.23,1.9,8.64,9.72l-1.79,6.07c-1.41,6.38-3,9.49-2.12,16.16,2.86.79,3.68.59,7.37,1.19l8.81,6.54C83.05,118,86,125.39,85.8,131.22l3,2.05,4.68,2.92,4.36-.23.94,10.43,1.08,8.14,3.37,2,2,6.8,2.9,2.89,4.73,2.84,2.95,1.92,2.89,2c2.72,1.36,1.9.62,3.32,3.8l3,5.61,3.6,3.88c1,.46,2.44,1,3.38,1.56l5.3,2.61c2.92,2.47,3.43,2.89,6.83,5.78l4.76,4,5.87,4.79,6.74,4.85,6.33,5.3c2.94,1.87,3.62,2.13,8.07,5.13,1.36.91,1.7.4,2.47,2.18l4.93-.42c2.36-5.05.71-2.72,5.19-4.85,1.93-.79,1.9-2.18,2.47-3.34.68-1.42,1.21-1.48,1.92-2.16l-.39-3.12c-2.13-4.7-4.48-5.92-5-11.31-4.91-1-2.92-1.3-8.11,1.56-4.51-3-.54-2-4.7-6.15-5.39,6.55-3.66,11.11-15.17-3.2-1.81-2.27-8.45-6.89-11.11-9.13l-2.92-2c-3.63-2.36-8.22-4.2-10.63-7.77l-2-2.95c-2.46-3.57-3.26-9.13.06-12.36l3.85-2,10.92-2.55c3-7.37.76-12.87,6.09-16.07l-.59-3.57-6-6.84-3.71-3.82c-3-2.89-2.41-1.67-2-6.07l4.84,1.22c2.64-.79.83-.68,3-3.71a45.46,45.46,0,0,1,4.33-4.51l-2.35-13.49,2.24-1.5,2.35-2.41c1.14-5.13.23-.66-.79-5.13-.62-2.67,1.42-1.31,0-4.77,1.59-8.13,5.75-6.8,3.57-15.45,4-4.5.37-4.3-1.25-5.72-1.78-1.56-5.61-1.82-15.5-3-9.21-1.1-3.91-3.94-12.93-10l-2.83-1.19,1.44-12.79A5.17,5.17,0,0,0,126,30.43c-.08-.09-1.64-.77-1.9-.91-8.45-1.05-10.8,1.61-16.38-5-5.08-6,.34-7.43-9.21-12-2.58,1-3.38,2.15-6,2.64s-5.92.11-8.39.59c-5.81,1.16-2.44,3.55-12.3,4.08l-5.33,1.9L61.31,18.8c-8.13-2.92-7-1.47-15.08-1.5-1.53-1.08-4.16-3.29-5.64-3.94-2.21-1-3-1.44-4-1.53-.68-.06-1.62.48-2.89-.28-.83-.49-1.25-2.44-2.39-3.43-.85-.8-2.35-.66-3.37-1.25-2-1.16-4.51-1.3-5.33-2.07l-1.5-.48L15.87,2.48C10.63,1.31,6.18-.64.48.21Z"/><path id="path6622" class="cls-1" d="M159.9,146.62h.88l.4.17.22-.12.54.34.14.46,1.25.42.4.74.71.42,1.39.12-.2,1.22-.82-.31-.8.31-.42-.06-.2.2-.23,1.25.23.31-.26.37.37.31-.59.85.14.68.39,0,.09.4.28.08.34-.34.32.17.34-.05,0,.31.68.56.37.12.12-.26.82.85.68.31,1.22,0,.14-.32.42,0,.46-.37,1,.11.17.26-.2.36.12.57-.63-.2-.45.2-.28-.14-.68.4-.29.37-.05-.66-.51-.37-.46-.05-.93.59-1.19.06-.26.2-1.05.2-.31.31-.43,0-.28.37.14.51-.48-.31-1.19.22.06-.28-.63-.17-.48.09-.65-.23-.65.28-.71-.31-.94-1.13-.59,0-2.07.76-.34.32-1.47.31-.52.76.26.71-.88.82h-.37l-.65-1h.23l.68-.65.17-.31-.12-.12.26-.25-.43.17-.17-.12-.39-.65-.12-1.53-.19-.31-.37-.09,0-.19,1.42-1.56.39-.91.43-.43.17-.73-.17-.23.06-.57.14.15.11-.23.48,0,.54-.48-.25-.26-.06-.53.51-.4.28.14.06-1.22-.6-.28,0-.46.57.34-.06-.34.14,0,.23.28-.14.45L155,148l0-.43.4,0,.11.54.28.14.23-.17-.34-.2.17-.93.4.14.08.23.15-.46.36-.08,1.22.2.09-.34.68.28,1.13-.28Zm0,0Z"/><path id="_1" data-name="1" class="cls-2" d="M159.9,146.62h.88l.4.17.22-.12.54.34.14.46,1.25.42.4.74.71.42,1.39.12-.2,1.22-.82-.31-.8.31-.42-.06-.2.2-.23,1.25.23.31-.26.37.37.31-.59.85.14.68.39,0,.09.4.28.08.34-.34.32.17.34-.05,0,.31.68.56.37.12.12-.26.82.85.68.31,1.22,0,.14-.32.42,0,.46-.37,1,.11.17.26-.2.36.12.57-.63-.2-.45.2-.28-.14-.68.4-.29.37-.05-.66-.51-.37-.46-.05-.93.59-1.19.06-.26.2-1.05.2-.31.31-.43,0-.28.37.14.51-.48-.31-1.19.22.06-.28-.63-.17-.48.09-.65-.23-.65.28-.71-.31-.94-1.13-.59,0-2.07.76-.34.32-1.47.31-.52.76.26.71-.88.82h-.37l-.65-1h.23l.68-.65.17-.31-.12-.12.26-.25-.43.17-.17-.12-.39-.65-.12-1.53-.19-.31-.37-.09,0-.19,1.42-1.56.39-.91.43-.43.17-.73-.17-.23.06-.57.14.15.11-.23.48,0,.54-.48-.25-.26-.06-.53.51-.4.28.14.06-1.22-.6-.28,0-.46.57.34-.06-.34.14,0,.23.28-.14.45L155,148l0-.43.4,0,.11.54.28.14.23-.17-.34-.2.17-.93.4.14.08.23.15-.46.36-.08,1.22.2.09-.34.68.28,1.13-.28m0,0Z"/><path id="path6670" class="cls-1" d="M181.5,115.86l1,.26-.17.11.25.23.2-.15.28.57.06.31-.37,1.11.23,1.9,1,1.9.06.93.39.57,1.37,1.19,1.19.65.9,1.31.65,0,.26.57,1.22,1,.51.14.42,1.17,1.31,1,.59.06.46.34.71,1.42-.06.54-.34.37.06.28.56.48-.39.71-.49-.2-.19.11-.32.86.26.08-.23.31-.65-.2.43-.36-.29-.49.37,0,.14-.17-.65-.76-.51.68-.14.45.17.26-.29,1-.82.31v.31l-.22-.28-.46.17-.2-.49-.36-.17-.77-2.07-.11,0,.11.29-.23-.15-.22.15-.63-.37-.2.48-.17-.06.09.74.51,1.16.51.43.62,1,.46.34-.17.17.2.25.34,0,.36.51,0,.2-.46-.34.14.45-.14.26-.17-.26.06.43h-.28l-.17-.28-.12.14-.11.34.4.34-.23-.06-.29.26-.25-.34-.31.22-.2-.14.37.6-.88-.4-.68.14-.09-.23-.28,0-.45.22-.57-.34-.37-.45.11-.37-.65-.2-.51-.56.26-.71-.77-.49-.42-.59-.2-.62-.45-.26,0-.4-.46-.11-.28-.31h-.37l-.34-.31.06-.4-.12.06-.48-.63.29-.51-.23-.14,0-.42-.26-.12-.17-2.1.26-.17-.29,0,0-.29.31-.22-.31-.26-.17-.71.56-.34.29-.51-.6-.08-.17-.85h-.34l-.17-.63-.23.23.15.65-.88-.68-.12-.34,0-.23.28-.05.06-.29-.37.12-.17-.91.85-.51-.26-.2,0-.17.57-.2L179,124l.14-.91.31-.43-.23-.42.17-.2-.08-.76-.29-.49v-1.07l-.17-.15.43-.48-.06-2,.23-.4,1-.74,1-.14Zm0,0Z"/><path id="_1-2" data-name="1" class="cls-2" d="M181.5,115.86l1,.26-.17.11.25.23.2-.15.28.57.06.31-.37,1.11.23,1.9,1,1.9.06.93.39.57,1.37,1.19,1.19.65.9,1.31.65,0,.26.57,1.22,1,.51.14.42,1.17,1.31,1,.59.06.46.34.71,1.42-.06.54-.34.37.06.28.56.48-.39.71-.49-.2-.19.11-.32.86.26.08-.23.31-.65-.2.43-.36-.29-.49.37,0,.14-.17-.65-.76-.51.68-.14.45.17.26-.29,1-.82.31v.31l-.22-.28-.46.17-.2-.49-.36-.17-.77-2.07-.11,0,.11.29-.23-.15-.22.15-.63-.37-.2.48-.17-.06.09.74.51,1.16.51.43.62,1,.46.34-.17.17.2.25.34,0,.36.51,0,.2-.46-.34.14.45-.14.26-.17-.26.06.43h-.28l-.17-.28-.12.14-.11.34.4.34-.23-.06-.29.26-.25-.34-.31.22-.2-.14.37.6-.88-.4-.68.14-.09-.23-.28,0-.45.22-.57-.34-.37-.45.11-.37-.65-.2-.51-.56.26-.71-.77-.49-.42-.59-.2-.62-.45-.26,0-.4-.46-.11-.28-.31h-.37l-.34-.31.06-.4-.12.06-.48-.63.29-.51-.23-.14,0-.42-.26-.12-.17-2.1.26-.17-.29,0,0-.29.31-.22-.31-.26-.17-.71.56-.34.29-.51-.6-.08-.17-.85h-.34l-.17-.63-.23.23.15.65-.88-.68-.12-.34,0-.23.28-.05.06-.29-.37.12-.17-.91.85-.51-.26-.2,0-.17.57-.2L179,124l.14-.91.31-.43-.23-.42.17-.2-.08-.76-.29-.49v-1.07l-.17-.15.43-.48-.06-2,.23-.4,1-.74,1-.14m0,0Z"/></svg>