<svg id="Layer_1" data-name="Layer 1" xmlns="http://www.w3.org/2000/svg" viewBox="0 0 147.97 242.3"><defs><style>.cls-1,.cls-2{fill:#8cb938;}.cls-1{fill-rule:evenodd;}</style></defs><path class="cls-1" d="M93.29,2.21,91,3.23l-7,.31L81,9.89l-3.4-.71c-.82,1.17-1.61,2.33-2.44,3.49l-1.87,3L63.38,25.4l-2,3.74-4.51.06-.17,6.88-9.35,2.75c-9.07,2.75-15.14,7-23.44,5.65-5.31-.83-9.81-.71-12.65,2.23C8.76,48.67,4,48.93.11,49.78-.43,58,1.22,65.25.22,72.25l5,.8c1.07,2.38,5.3,11.22,5.75,11.76,3.83,3.26,3.77,1.59,6.72,6.35l.48.54a10.24,10.24,0,0,1,3.63.6,4.91,4.91,0,0,1,2.58,1.78l1.53.43c13,2.49,7.17.08,11.54-2.3l.73,7.94,5.5,2.15c4.42,4,2.78,5.19,6.83,8.76l6.92-1c2.44-1.59,1-.45,3.15-3.14,5.41,1.53,4.67,2.6,11,1.16s6-1.65,11.63,1.1c5.78,2.27,3.34,4.74,8.56,6.07,3.48.88,8.42,1.7,12,2.41,8.87,1.7,16.32,5.3,23.66,1.19l.43-1.53c.85-3.32,2.64-1.79,6-3.18,2.21-.9,2.66-2.41,4.62-4l9.38-8.25-7.43-6.32-4.87-3.8c-4.34-4.54-5.16-14.6-5.08-20.86.09-7.12-.51-5.33,3.09-10.18,1.88-2.46,2.75-5.81,3.94-8.59l2.92-6.72,2.78-5.81,4.74-2.6-.49-6.64c-2.35-4.7-10.74-3.88-11.9-5.16l-5.39-6.57-10.8-5.45-2.12-1c-1.79-.65-3.52-1.42-5.28-2.18-.39-.17-2.35-1.11-2.6-1.3-1.85-1.36-.37-.17-1.31-1.68l-15-7Z"/><path id="path6458" class="cls-1" d="M110.92,124.07l-.26-.28,0-.48.14.11.09.65Zm0,0Z"/><path id="_1" data-name="1" class="cls-2" d="M110.92,124.07l-.26-.28,0-.48.14.11.09.65m0,0Z"/><path id="path6462" class="cls-1" d="M134.76,116.87l1.41.8-1.22.51-.28.34-.06.51-2.09.39-.88.57,0-.2.6-.68,1.61-.51.34-.65-.08-1,.19,0,.09-.28.4.28Zm0,0Z"/><path id="_1-2" data-name="1" class="cls-2" d="M134.76,116.87l1.41.8-1.22.51-.28.34-.06.51-2.09.39-.88.57,0-.2.6-.68,1.61-.51.34-.65-.08-1,.19,0,.09-.28.4.28m0,0Z"/><path id="path6468" class="cls-1" d="M137.22,117.84h.17l.26.25-.91-.28.17-.2.31.23Zm0,0Z"/><path id="_1-3" data-name="1" class="cls-2" d="M137.22,117.84h.17l.26.25-.91-.28.17-.2.31.23m0,0Z"/><g id="g8002"><path id="path8004" class="cls-1" d="M133.23,237.29l-2.36.17-19.13,3.09-3.4.82-1.67.93-.29-.05-.57-.57-.62-.23-.2-.39.29-.6-.29-.79.31-.85-.36-.65.25-.51-.14-.77-1.33-.45h-.46l-.42,1-.88-.17-.26.34-.62.08-.37-.68-1.53-.79-1.05-.06v-.71l-.14-.17-1.1-.42-1-.77L94,233.15l-.46-.71-.22-.74-1.25-2-1-.76-.4-.12-.17-.56.37-.63,0-.37-1.22-2.43-2.41-1.56-.62-1.79-.4-.23-.25.15-1.36-1.87-.32-.32-.25.09-.34-1,.34-.15.23-.42-.43-.2-.48.23L82,215.49,81.72,214l.2-.48.54-.46-.37-1-.79-.37-.83.06-.59-.65-.37-.14-.14-.32-2.75-1.44-.82-1-.29-.94.09-.79.59-.23-.39-.2-.23-1.16.54-.14.79-.62,1-1.22.77-2.16.22-2.27.77-1.58,0-3.15L78.77,192l1.39-.91,1.5.09,1-.23,1.67,0,.34-.87-.54-.43,0-.2.65-.22.37-.4.43,0,.31-.54-.23-.23h-.54l-.42-.36-1,0-.34.32-.31-.17-1-1.42.29-.79-.6-.57.37-.77.17-1.05.65-.34.68-1.3.62-.31.2-.37.51-.2.49-.51.34-.45,0-.57.77-.2-.09-.73.17-.18.34,0,1,.56.73-.05.63,1.05.28.11,0,.54.57.22.57.85,1.1-.76,1.19.34.23-.65.31.2-.06-.74.6-.85.28.06.51.87.63.34.34-.05.22-.46-.25-.51-.54-.17.11-1.58.6-.15-.09-.62-.65,0-.42.2-.6-.31-.17-.28H92.58l0-.32-.14-.05-.88.22v-.42l.68-.4.12-.62-.31-.6-.54-.45-.49.28-.48-.76-.59-.09-.74.46-.48-.32-.54.12-.85-.63-.45-.14.08-.31-.2-.51-.62-.51-.06-.74.2-1.13,1.9-2.16.54-.25.31.74,0,.73.46,1.28.51.28.79-.11.25.93.83,1.25.93-.11-.45-1.56.48-.43.28.09.43-.45.54.34.45-.09-.28-.68-1.14-.54h-.73l-.57.2-.17-.37-.31-.08-1,.25-.34.4-.51-1-.06-1-.93-.42-.09-.34,1.28-2.41.93-.88.6-.91.48,0,.45-.2.4-.45.71-.2,1.1-1.56.6-.06L96.15,158l.79-.51.82-.31h.66l.93.4.54.79.11.79-.17,1.14-.9.54-.32.54.12.48-.31,1.7.48,1,0,.43,1.73.05.28.2.06.31.93.17,1.11,1.25.54-.28.56.65.77-.08.31.45.51.11.31,1.08.68.14-.08.17.2.28,1.27.46.74-.14-.2-.26.23-.79-.49-1.65-.34-.51v-.51l-.45-.65.28-1.13-.34-.6,1.31-1.59-.06-.42.45-.74.94-1,.2-.54,1.44-.51.51.12.77-.68,1.13.11.6.48.71,0,0,.26.88.62.66,1,.19.62-.28.74.06.59.79.54.11.31-.11,1,.43.34.39-.12.2.29.51.17-.31.73.25.63-.36.05-.54.91-.54.11-.43.66,0,.82.51.08.37.46-.71.39,0,1.19-.4.43-.09.48.23.6.71.48h.62l.6.28,0,.65.17.32-.54.28-.08.74.36.73.4.09.06.34.59.28,0,.45-.25.43.31.65,0,1.19.62,1.16.85.57.31-.11.85.91,1.42.39.65.57,1-.06.7-.28.29-.88-.23-.34-.51-.17-.06-.28-.39-.2-.26.11-.22.48-.12-1.33.17-.45-.17-.46,1.31,1,.51.06,1-.48.2-1.16,1.13.25.91-.51.56,0-.2.31.15.43.45.2-.17.48.25.45-.48.82.17.46.6.37.51-.06.71.51-.12,1,.26.48.4.09,0,.42.25.43.37,0,.48.42-.17.54.26.4.85.31.62-.45.4,0-.17.94.42.57-.87.28.05.54-.25.08-.2.71.34,1.31.54.56.71.37,1.44-.37.65-.37-.56,1-.6,0-.45.54-.12,1.36.54.94.4,1.9.79.88.66-.17.28.34,0,.34-1.3.31-.29.22,0-.31-.45.12-.23.45-.51-.4-.34.77-.39-.34-1.93.9-.26.43.17.28-.34.23-.76-.51-.65,0-.4-.48-1,.08-.76.26.59.28.43.79,1.33,1.68-.09,1.13.32.6.59.17.51.42.54.82-.43,2-.08,1.81.06.48.36.51-.11,2,.31.49-.34,1.47.12,1.67-.15.68-.19.12.08.28-.23.11.34,0-1,.43-1.36,1-.42,1-.32.23-.36.76.59.77,0,.25.66.31.11.49-.37,0-.77-.42-.42.37,0,.39-.29.4.12.85.2.31.7.34.15.68.76.77-.68-.14-.45.25.65,1-.45,1.25.05.54.43.23.42-.06.66-.88.79-.37-.71,1.84-.37,2.41.46,2.27-.2,1.73.25.26-.05.48Zm0,0Z"/><path id="_1-4" data-name="1" class="cls-2" d="M133.23,237.29l-2.36.17-19.13,3.09-3.4.82-1.67.93-.29-.05-.57-.57-.62-.23-.2-.39.29-.6-.29-.79.31-.85-.36-.65.25-.51-.14-.77-1.33-.45h-.46l-.42,1-.88-.17-.26.34-.62.08-.37-.68-1.53-.79-1.05-.06v-.71l-.14-.17-1.1-.42-1-.77L94,233.15l-.46-.71-.22-.74-1.25-2-1-.76-.4-.12-.17-.56.37-.63,0-.37-1.22-2.43-2.41-1.56-.62-1.79-.4-.23-.25.15-1.36-1.87-.32-.32-.25.09-.34-1,.34-.15.23-.42-.43-.2-.48.23L82,215.49,81.72,214l.2-.48.54-.46-.37-1-.79-.37-.83.06-.59-.65-.37-.14-.14-.32-2.75-1.44-.82-1-.29-.94.09-.79.59-.23-.39-.2-.23-1.16.54-.14.79-.62,1-1.22.77-2.16.22-2.27.77-1.58,0-3.15L78.77,192l1.39-.91,1.5.09,1-.23,1.67,0,.34-.87-.54-.43,0-.2.65-.22.37-.4.43,0,.31-.54-.23-.23h-.54l-.42-.36-1,0-.34.32-.31-.17-1-1.42.29-.79-.6-.57.37-.77.17-1.05.65-.34.68-1.3.62-.31.2-.37.51-.2.49-.51.34-.45,0-.57.77-.2-.09-.73.17-.18.34,0,1,.56.73-.05.63,1.05.28.11,0,.54.57.22.57.85,1.1-.76,1.19.34.23-.65.31.2-.06-.74.6-.85.28.06.51.87.63.34.34-.05.22-.46-.25-.51-.54-.17.11-1.58.6-.15-.09-.62-.65,0-.42.2-.6-.31-.17-.28H92.58l0-.32-.14-.05-.88.22v-.42l.68-.4.12-.62-.31-.6-.54-.45-.49.28-.48-.76-.59-.09-.74.46-.48-.32-.54.12-.85-.63-.45-.14.08-.31-.2-.51-.62-.51-.06-.74.2-1.13,1.9-2.16.54-.25.31.74,0,.73.46,1.28.51.28.79-.11.25.93.83,1.25.93-.11-.45-1.56.48-.43.28.09.43-.45.54.34.45-.09-.28-.68-1.14-.54h-.73l-.57.2-.17-.37-.31-.08-1,.25-.34.4-.51-1-.06-1-.93-.42-.09-.34,1.28-2.41.93-.88.6-.91.48,0,.45-.2.4-.45.71-.2,1.1-1.56.6-.06L96.15,158l.79-.51.82-.31h.66l.93.4.54.79.11.79-.17,1.14-.9.54-.32.54.12.48-.31,1.7.48,1,0,.43,1.73.05.28.2.06.31.93.17,1.11,1.25.54-.28.56.65.77-.08.31.45.51.11.31,1.08.68.14-.08.17.2.28,1.27.46.74-.14-.2-.26.23-.79-.49-1.65-.34-.51v-.51l-.45-.65.28-1.13-.34-.6,1.31-1.59-.06-.42.45-.74.94-1,.2-.54,1.44-.51.51.12.77-.68,1.13.11.6.48.71,0,0,.26.88.62.66,1,.19.62-.28.74.06.59.79.54.11.31-.11,1,.43.34.39-.12.2.29.51.17-.31.73.25.63-.36.05-.54.91-.54.11-.43.66,0,.82.51.08.37.46-.71.39,0,1.19-.4.43-.09.48.23.6.71.48h.62l.6.28,0,.65.17.32-.54.28-.08.74.36.73.4.09.06.34.59.28,0,.45-.25.43.31.65,0,1.19.62,1.16.85.57.31-.11.85.91,1.42.39.65.57,1-.06.7-.28.29-.88-.23-.34-.51-.17-.06-.28-.39-.2-.26.11-.22.48-.12-1.33.17-.45-.17-.46,1.31,1,.51.06,1-.48.2-1.16,1.13.25.91-.51.56,0-.2.31.15.43.45.2-.17.48.25.45-.48.82.17.46.6.37.51-.06.71.51-.12,1,.26.48.4.09,0,.42.25.43.37,0,.48.42-.17.54.26.4.85.31.62-.45.4,0-.17.94.42.57-.87.28.05.54-.25.08-.2.71.34,1.31.54.56.71.37,1.44-.37.65-.37-.56,1-.6,0-.45.54-.12,1.36.54.94.4,1.9.79.88.66-.17.28.34,0,.34-1.3.31-.29.22,0-.31-.45.12-.23.45-.51-.4-.34.77-.39-.34-1.93.9-.26.43.17.28-.34.23-.76-.51-.65,0-.4-.48-1,.08-.76.26.59.28.43.79,1.33,1.68-.09,1.13.32.6.59.17.51.42.54.82-.43,2-.08,1.81.06.48.36.51-.11,2,.31.49-.34,1.47.12,1.67-.15.68-.19.12.08.28-.23.11.34,0-1,.43-1.36,1-.42,1-.32.23-.36.76.59.77,0,.25.66.31.11.49-.37,0-.77-.42-.42.37,0,.39-.29.4.12.85.2.31.7.34.15.68.76.77-.68-.14-.45.25.65,1-.45,1.25.05.54.43.23.42-.06.66-.88.79-.37-.71,1.84-.37,2.41.46,2.27-.2,1.73.25.26-.05.48m0,0Z"/></g><g id="g8018"><polygon id="path8020" class="cls-1" points="70.64 214.69 70.61 214.95 70.35 215.06 70.35 215.57 70.18 215.72 70.18 215.06 69.87 214.58 70.1 214.72 70.27 214.61 70.33 214.75 70.69 214.38 70.81 214.47 70.64 214.69"/></g><g id="g8176"><polygon id="path8178" class="cls-1" points="81.38 176.85 82.15 177.22 81.98 178.33 80.93 178.21 80.59 177.82 80.61 177.34 80.84 177.02 81.38 176.85"/></g><g id="g8184"><path id="path8186" class="cls-1" d="M92.38,177.19l.34-.14v.51h-1l.28-.34v-.37l.34.34Zm0,0Z"/><path id="_1-5" data-name="1" class="cls-2" d="M92.38,177.19l.34-.14v.51h-1l.28-.34v-.37l.34.34m0,0Z"/></g><g id="g8248"><path id="path8250" class="cls-1" d="M90.54,175.72l.31,0-.12.2.26.28.45-.17-.08.48-.23.17-.45-.14-.63-.71.26-.25.23.17Zm0,0Z"/><path id="_1-6" data-name="1" class="cls-2" d="M90.54,175.72l.31,0-.12.2.26.28.45-.17-.08.48-.23.17-.45-.14-.63-.71.26-.25.23.17m0,0Z"/><path id="path8252" class="cls-1" d="M86,171.92l-.26.28.17,1.14.34.62.49.06-.09.74.4.51,0,.28L86.11,177l0,.73-.26.37-.34.12-.31,1.19-.77-.34-1.13.56-.79-.17-.12-.45.37-.51-.28-.82.39-.71-.08-.34.25-.85,1.08-1.68.26-1,.65-1,.2-.17Zm0,0Z"/><path id="_1-7" data-name="1" class="cls-2" d="M86,171.92l-.26.28.17,1.14.34.62.49.06-.09.74.4.51,0,.28L86.11,177l0,.73-.26.37-.34.12-.31,1.19-.77-.34-1.13.56-.79-.17-.12-.45.37-.51-.28-.82.39-.71-.08-.34.25-.85,1.08-1.68.26-1,.65-1,.2-.17H86m0,0Z"/><path id="path8254" class="cls-1" d="M102.73,165.6h-.18v-.31l.37,0-.19.34Zm0,0Z"/><path id="_1-8" data-name="1" class="cls-2" d="M102.73,165.6h-.18v-.31l.37,0-.19.34m0,0Z"/><path id="path8256" class="cls-1" d="M110.92,124.07l-.26-.31,0-.45.14.11.09.65Zm0,0Z"/><path id="_1-9" data-name="1" class="cls-2" d="M110.92,124.07l-.26-.31,0-.45.14.11.09.65m0,0Z"/></g><g id="g8339"><path id="path8341" class="cls-1" d="M135.81,217.61l.45.09-.71.68-.2.65h-.2l-.17-.62.32-.31,0-.32.37-.22.17.05Zm0,0Z"/><path id="_1-10" data-name="1" class="cls-2" d="M135.81,217.61l.45.09-.71.68-.2.65h-.2l-.17-.62.32-.31,0-.32.37-.22.17.05m0,0Z"/><path id="path8343" class="cls-1" d="M140.4,210.1l-.74,1.34-.77.7-.14.54.17.71-.93,1.48-.68.28-1.31-1v-1.22l.15-.26-.26-.22.57-.06L137.9,211l1-.76,1.08-.09.2-.17.17.14Zm0,0Z"/><path id="_1-11" data-name="1" class="cls-2" d="M140.4,210.1l-.74,1.34-.77.7-.14.54.17.71-.93,1.48-.68.28-1.31-1v-1.22l.15-.26-.26-.22.57-.06L137.9,211l1-.76,1.08-.09.2-.17.17.14m0,0Z"/><path id="path8345" class="cls-1" d="M69.76,203.5l.71-.2.48.45-.74,1.34.09,2.21-.37.68-.51.25-.94-.71,0-.9.48-.4-.06-.77.37,0,.65-.74-.2-.74-.59-.17-.09-.22.31-.32.46.26Zm0,0Z"/><path id="_1-12" data-name="1" class="cls-2" d="M69.76,203.5l.71-.2.48.45-.74,1.34.09,2.21-.37.68-.51.25-.94-.71,0-.9.48-.4-.06-.77.37,0,.65-.74-.2-.74-.59-.17-.09-.22.31-.32.46.26m0,0Z"/><path id="path8347" class="cls-1" d="M75.4,197.38h-.14l-.14-.15.31-.08,0,.23Zm0,0Z"/><path id="_1-13" data-name="1" class="cls-2" d="M75.4,197.38h-.14l-.14-.15.31-.08,0,.23m0,0Z"/><path id="path8349" class="cls-1" d="M140.14,196.13l-.17-.26.23-.45v.42l-.06.29Zm0,0Z"/><path id="_1-14" data-name="1" class="cls-2" d="M140.14,196.13l-.17-.26.23-.45v.42l-.06.29m0,0Z"/><path id="path8351" class="cls-1" d="M80.81,187.74l-.25-.12,0-.31.57,0-.08.28-.29.12Zm0,0Z"/><path id="_1-15" data-name="1" class="cls-2" d="M80.81,187.74l-.25-.12,0-.31.57,0-.08.28-.29.12m0,0Z"/></g><g id="g8451"><polygon id="path8453" class="cls-1" points="79.77 182.27 79.71 182.63 79.59 182.63 79.62 182.29 79.48 182.61 79.59 183.15 79.79 183.2 79.48 183.43 79.06 183.37 79.23 182.01 79.57 181.81 79.77 182.27"/><path id="path8455" class="cls-1" d="M87.08,225.67l-.48.19-.49-.31-.59-.76,0-.88,1.13.45.46,1.31Zm0,0Z"/><path id="_1-16" data-name="1" class="cls-2" d="M87.08,225.67l-.48.19-.49-.31-.59-.76,0-.88,1.13.45.46,1.31m0,0Z"/></g><g id="g8465"><polygon id="path8467" class="cls-1" points="68.88 222.75 69.9 223 70.47 222.77 71.23 223.23 70.41 222.97 69.84 223.2 68.68 222.89 66.07 224.39 65.14 225.72 64.77 226 64.15 226 64.83 225.52 65.25 224.65 67.43 222.97 68.17 222.72 68.88 222.75"/></g></svg>