<svg id="Layer_1" data-name="Layer 1" xmlns="http://www.w3.org/2000/svg" viewBox="0 0 89.53 177.51"><defs><style>.cls-1{fill:#8cb938;fill-rule:evenodd;}</style></defs><path class="cls-1" d="M37.93,6.24,37.42,7.8C35,11,27.75,15.31,24.09,18.18c-2.18,1.73-4.93,3.23-6.4,5.16-1.93,2.52-2.5,4.53-4.91,7.08L11.4,33.91c-1.88,4.62-3.38,8-5.05,12.9C2.92,56.9,6.21,56.47,3.12,61.38L1.64,64.86,0,68.75l.68.7H2.24l1.45-.59c5.27-.43,5,0,7.34-2.49L11.45,64,14,60.58l7.2.8L22.08,66l-.79,4.36-.17.2c-4.08,5.92-2,9.27-4.48,14.14l.28.15c-.48,3.51,0,3.37-2.29,5.13a1.24,1.24,0,0,0-.29.62,2.72,2.72,0,0,1-.85,1.3l.82,2.89.37,1.54,2.55,5.49,2.07,4.26c1.53,2.07,1.68,2.15,1.93,5.38.28,4,.14,4.11-2,6.3l-2.47,1.92c-1.58,3-.76,2-2.92,3.52l-1.89,2.83L10,129c-.37,8.73-2.75,10.52.08,20.92.37,1.33.65,1.08.48,2.72-.62,5.67-.76,2.41-1.92,3.89l-2.05,2-3.48,4.31.39,2,2.41,6.66c4.74,1.22,3.52,2.55,9.19,2.44l7.31,2,4.4,1.64,3.82-3.85c3.6-7.35,3.55-4.68,3.91-14l-5.41-6.74c.06-9,3.51-19.39,10.26-24.72L42.69,125c.17-7.57.79-7.52-2.35-14.26-1.45-3.83-.71-3.38.71-7.12,3.11-2,2.26-.11,5.13-2.35l2.86-4,1.87-2L57,92.19l-.2,5.1L50,103.22l3,5.66,1.22,1.51,7.94.42,5.35-5.75c-.76-6.41-2.58-6.89,1.71-11.71l10.4,4.05c.22,8.91-1,9.25,5.27,15.37,2.58,2.21.6,1.3,3,2,1.59-.65,1.17-1.22,1.59-1.53C90,102.93,87.39,97.69,87.68,89c.28-10,2.46-12.73-2.81-21.8-4.17-6.6,2.64-3.94-.23-13.29-5.81-18.88-2.49-6.55-9.07-18-1.81-3.17-3.17-6.49-4.7-9.89C67.1,24.24,66.13,25,62.53,22l-4.76-1.11C55.19,13.39,55.05,16.73,50,13c2.75-4.76,3-3.69,8.82-4.08-.34-3.43-.17-5.31-1.62-8C50.09-2,43.82,2.93,37.93,6.24Z"/></svg>