<svg id="Layer_1" data-name="Layer 1" xmlns="http://www.w3.org/2000/svg" viewBox="0 0 74.24 65.03"><defs><style>.cls-1,.cls-2{fill:#8cb938;}.cls-1{fill-rule:evenodd;}</style></defs><path id="path6744" class="cls-1" d="M17.89,0l1.84.57.48-.06-.08.2,1.3.17,1.64,1.73,2.47,1.9.82-.09.77.85,1.53.88,1.25.2L33.28,9.5l1.44.68.77-.09,1.22.4.68-.14.37-.43.73-.2,2.64-.11,1-.23L42,9.84l.85-.46.85,0,.85-.68.83-1.13L46.83,7l.76.26.49.37L48,8.05l.26.14.08-.45.94.11.9-.17,1.39-.51.46.06.53-.4L54,6.94l2.16.49,1.1-.14.85.17.06.28.42.28.46-.2.54.37.25.43.71.31.79-.06.46.34,1.5.17.17.51.74-.14.51.23,1.73,1.87,0,1.19-.26.14.4.57,0,.71.4-.15.59.15.77.48,1.64,2,.26.88.48,0,.42.57.77.23.25.25L72,19l.57.37.39.71.66,3.2.28.51,0,.26-.26.28.14.88.43.48-.17.57-.34.25-.23-.17-.28.09-1.08,2h-.25l-.12.31,0,.14.17-.25.71.48,0,.23-.45.06-.06.17.2.31.43.14,0,.25-.11.37h-.2l-.2,1-.79,1.5.08.48H71.4l-.62,1.08-.37.2-.88,1L69,37.08l-1.1,1-.2.48-.79-.08-.65.36-.37-.14-.46.14-.14.46.26.76-.26.4-.45-.11-.46.14L64,40.25l-.62.12-.34.62-.28.11-.46,1.25-.25,1.22.06.85-.4.79-1.42,1.28-.93,1.39-.32-.06-.73-.74-.85.29-.26.31v.88l.43.93-.2.09L56.55,51l-.68.2L55.11,51l-.26.2v.29l-.45.28h-.54l-1,.71-1.84,3-.66,1.39-.22.88.11.17.37,0-.26.31-.2,0L49.63,60l-1.41,1.62-.65.23-.37.59-1.48,1.5-.65,0,.17-.25-1.61.65v.2l-.57.17,0,.2-1.45.2-.73-.37-1,.08-.34-.31-1.13-.31-.71-.68L38,63.1l.06-.2L38,62.82l0,.25-.15-.2-.25.54L37.3,63l-1.36-.42-1.7.05L30.73,62l-1.31-.68-.68-.11-.62-.45.06-.4-.77-.51-1.73-.6L25,58.14l-.68-.23-.22-.48.22-.17-.54.2.26.08,0,.34-2.61-1.7-.68-.11-.08-.23-.37-.11,0-.34-.65-1-2.07-1.84,0-.17.25-.17-1.9-.68-1.33-.09-.88.28-1-.31-.4-.51.37-1.3L11.45,47.4,11,44.87l-.6-1.3L9.18,43.2l-.34-.65.34-.71L9,41.78,8.53,41,6.58,39.8l0-.31-.25-.23.11-.45L6,38.21,5.3,38l.11-.45-.62.2.11-.31-.56-.68-.09-1.25L3.8,34,3.4,34l-.68-.68L2.1,31.15l-.4-.62-.08-.88L1.11,29,.77,27.69l-.29-.42.12-.4.87-.73.54-.2.37-.48L2.18,24l-.88-.2-.22-1.33L.77,22l-.63-.4L0,21.2l.45-.37,1.14.06.54-.14.34-1,.31-.06.05-.65L2,18.51l.17-1,1,.05.51.4.71-.14,1.28.74H7.06l.88-.37.31.2L8.08,18l.65-1.53v-.85L9,14.77l.42-.23.65-1.84,1.08-1.22,0,.2-.68.74,1-.71.06-.37.34-.11-.09-.32L12,10.8l.09.26,0-.54.46-.51h-.17l0-.43.34.17.56-.2L13.66,9l-.51,1,.85.09.66-.31-.35-.12-.11.17L14,9.69l.71-.45.28-.82-.2.2-.11-.2-.32.42-.48.2.2-.56L14,7.68l.29-.82-.12-.17.26-.26H14l-.17-.31L14,6l.74-1.42,1-1,.94-1.36L17.43.11,17.91,0Zm0,0Z"/><path id="_1" data-name="1" class="cls-2" d="M17.89,0l1.84.57.48-.06-.08.2,1.3.17,1.64,1.73,2.47,1.9.82-.09.77.85,1.53.88,1.25.2L33.28,9.5l1.44.68.77-.09,1.22.4.68-.14.37-.43.73-.2,2.64-.11,1-.23L42,9.84l.85-.46.85,0,.85-.68.83-1.13L46.83,7l.76.26.49.37L48,8.05l.26.14.08-.45.94.11.9-.17,1.39-.51.46.06.53-.4L54,6.94l2.16.49,1.1-.14.85.17.06.28.42.28.46-.2.54.37.25.43.71.31.79-.06.46.34,1.5.17.17.51.74-.14.51.23,1.73,1.87,0,1.19-.26.14.4.57,0,.71.4-.15.59.15.77.48,1.64,2,.26.88.48,0,.42.57.77.23.25.25L72,19l.57.37.39.71.66,3.2.28.51,0,.26-.26.28.14.88.43.48-.17.57-.34.25-.23-.17-.28.09-1.08,2h-.25l-.12.31,0,.14.17-.25.71.48,0,.23-.45.06-.06.17.2.31.43.14,0,.25-.11.37h-.2l-.2,1-.79,1.5.08.48H71.4l-.62,1.08-.37.2-.88,1L69,37.08l-1.1,1-.2.48-.79-.08-.65.36-.37-.14-.46.14-.14.46.26.76-.26.4-.45-.11-.46.14L64,40.25l-.62.12-.34.62-.28.11-.46,1.25-.25,1.22.06.85-.4.79-1.42,1.28-.93,1.39-.32-.06-.73-.74-.85.29-.26.31v.88l.43.93-.2.09L56.55,51l-.68.2L55.11,51l-.26.2v.29l-.45.28h-.54l-1,.71-1.84,3-.66,1.39-.22.88.11.17.37,0-.26.31-.2,0L49.63,60l-1.41,1.62-.65.23-.37.59-1.48,1.5-.65,0,.17-.25-1.61.65v.2l-.57.17,0,.2-1.45.2-.73-.37-1,.08-.34-.31-1.13-.31-.71-.68L38,63.1l.06-.2L38,62.82l0,.25-.15-.2-.25.54L37.3,63l-1.36-.42-1.7.05L30.73,62l-1.31-.68-.68-.11-.62-.45.06-.4-.77-.51-1.73-.6L25,58.14l-.68-.23-.22-.48.22-.17-.54.2.26.08,0,.34-2.61-1.7-.68-.11-.08-.23-.37-.11,0-.34-.65-1-2.07-1.84,0-.17.25-.17-1.9-.68-1.33-.09-.88.28-1-.31-.4-.51.37-1.3L11.45,47.4,11,44.87l-.6-1.3L9.18,43.2l-.34-.65.34-.71L9,41.78,8.53,41,6.58,39.8l0-.31-.25-.23.11-.45L6,38.21,5.3,38l.11-.45-.62.2.11-.31-.56-.68-.09-1.25L3.8,34,3.4,34l-.68-.68L2.1,31.15l-.4-.62-.08-.88L1.11,29,.77,27.69l-.29-.42.12-.4.87-.73.54-.2.37-.48L2.18,24l-.88-.2-.22-1.33L.77,22l-.63-.4L0,21.2l.45-.37,1.14.06.54-.14.34-1,.31-.06.05-.65L2,18.51l.17-1,1,.05.51.4.71-.14,1.28.74H7.06l.88-.37.31.2L8.08,18l.65-1.53v-.85L9,14.77l.42-.23.65-1.84,1.08-1.22,0,.2-.68.74,1-.71.06-.37.34-.11-.09-.32L12,10.8l.09.26,0-.54.46-.51h-.17l0-.43.34.17.56-.2L13.66,9l-.51,1,.85.09.66-.31-.35-.12-.11.17L14,9.69l.71-.45.28-.82-.2.2-.11-.2-.32.42-.48.2.2-.56L14,7.68l.29-.82-.12-.17.26-.26H14l-.17-.31L14,6l.74-1.42,1-1,.94-1.36L17.43.11,17.91,0m0,0Z"/></svg>