<svg id="Layer_1" data-name="Layer 1" xmlns="http://www.w3.org/2000/svg" viewBox="0 0 222.01 122.6"><defs><style>.cls-1{fill:#8cb938;fill-rule:evenodd;}</style></defs><path class="cls-1" d="M82.71,3.29,74.72,1C70-1.19,67,.29,62.45,5.05L58.11,9.19,53,12.42c-3.66,4-12.05,3.06-17.69,3.32-4.93.25-17.4,3.2-20.09-.85L6.26,12.56l-2.77,1c-1,3.62,1.13,6,3.57,8.7L8.84,39.94l1.82,3.6C12,44.71,13,52,10.52,59.65L0,92.7c.09.85,2.89,2.69,4.93,3.37L9.18,97.8l3.58,1.73,9.35,4.7L27.75,111c4.28,1.39,5.08.57,9.72,2.72,3.86,4.31.77,5.36,2.41,8.87,3.38,0,7.77-.08,10.94-1.61,5.42-3.06,8.17-7.69,14.49-8.34,10.29-1.07,3.15,4,16.61-.11l6.55-2,14-4.71,1.47-.51c4.68-6.49,10-5,17.89-5l1.9,3.48c7.94-.22,6.75.2,13.12-3.71,3.43-2.32,7.77-4.25,9.64-7.68,2.87-1.59,3.94-2.24,5.73.88,6,3.12,6.09,2.46,10.6,7.76l4.45,2.22,1,6.06,3.46-.62,4.71-1,3.85,5.84c3.12,2.64,1.67,2.19,5.76,2.38l2.92-5.3c1.33-4.08,1.33-5.75,0-9.83l-.76-2.13-2.21.37c-3.46.43-5.73-1-7.66-2.89-2.63-2.92-3.8-8-5.55-9.95-2.41-2.69-4.65-1.36-8-6.46,1.56-5.36,3.37-6.3,9.16-6.86,8.56,7.17-.8,7,15,18.45,10.26,6.86,1.14,2,12.67,7.8,2.19,1.1,1.22,1.44,3.69,3.37,2.35-4.79.45-3.69,5.53-5.78,2.63-1,5.78-1.85,7.22-4.34,2.55-4.42,4-15.08,3.86-18.48-9.21-3.86-2.92-11.17-.2-17.35.09-.54-1-21.66-1.11-22-1.78-6.44-7.17-10.52-8.56-16.73-4.5-5-15.08-3.23-22-4.34l.93,4.37,1.88,3c3.54,4.4,7.88,5.7,13.15,7.94-1.22,3.37-1,1.25-.85,5.44l-6.32.29c-5.13,2-6.21,3-11.65.68l-12.39-3.29L177.19,37,170,36.57l-1.27-2.41c-4.09-6.09.28-7.37-1.93-13.43l-3-3.49L165,15c.82-3.57-.49-2.29,2.8-3.94l-.88-4.31c-1.73-2.24-.37-2-2.46-6L156.7,3.55l-4,3-.57,2c0,2.21.59,1.76-1.56,1.53-4.79,1.47-14,7-18.85,4.7-2.52-1.81-4.54-2.8-6.32-5.32L120.61,5l-3.48-2.83L102.42.32,96.8.2c-1.1,4.37-1.87,5.16-6.46,6S85,6.58,82.71,3.29Z"/></svg>