<svg id="Layer_1" data-name="Layer 1" xmlns="http://www.w3.org/2000/svg" viewBox="0 0 139.27 163.11"><defs><style>.cls-1,.cls-2{fill:#8cb938;}.cls-1{fill-rule:evenodd;}</style></defs><path class="cls-1" d="M128.64,30.1l-.43,2.33c-2.52,2.41-3.91,2-7.34,2.49l-1.45.6h-1.56l-.17,2.18c4.79,13.38.46,11.71,3.21,17.77C123,60,125.69,59.39,119.79,70L115,74c-.85,5.21-.48,2.55-3,6.18l4,4.45c2.67,2.49,2.16,2.52,1.39,7.22-2.52,1.7-1.56.29-3.31,2.47-1.19,1.5-.46,1.36-2.44,3.37,2.1,3.72,2.12,3.12,2.1,7.71l-9.87,7.26-.48.51c-2.44,4.25-2.41,2.1-4.56,5.92l2.57,1.39,7.57-5.81c3.12,12.25-.17,4.25.85,12.79,1.59-.71,4-.74,7.94-.09l1.33.85,1.22.65,3.49-4.3,2-2c.2-.31.62.08,1.16-.37.88-.74.37-1,.48-1.36a8.34,8.34,0,0,0,.32-3.23l-1.88-10.32L127,97.45l.17-2.4,1.9-2.92,1.9-2.84c2.32-1.16,1.73-1.27,2.92-3.51l2.46-1.93c4.4-2.38,1.28-11.77.12-11.68l-2.07-4.25-2.55-5.5-.37-1.53c-.28-1-.54-1.93-.82-2.89a3.37,3.37,0,0,0,1.13-1.93c3.18-1.7,2.07-3.18,2.3-5.13l-.29-.14c3.29-7.6.71-8.37,4.65-14.35.91-5.33,1.25-3.71-.11-9l-7.2-.79Z"/><path id="path6414" class="cls-1" d="M92.69,18.14l.4,0,1.25,1.13,1.07.23.17.26-1,.11-1.17-.31-.85.05-.31-.7.23-.83.25,0Zm0,0Z"/><path id="_1" data-name="1" class="cls-2" d="M92.69,18.14l.4,0,1.25,1.13,1.07.23.17.26-1,.11-1.17-.31-.85.05-.31-.7.23-.83.25,0m0,0Z"/><path id="path6418" class="cls-1" d="M111.51,96.38l-.08,0-.51-.57.4-.11.65.36-.46.29Zm0,0Z"/><path id="_1-2" data-name="1" class="cls-2" d="M111.51,96.38l-.08,0-.51-.57.4-.11.65.36-.46.29m0,0Z"/><path id="path6420" class="cls-1" d="M115.65,94.56l-.08-.2.11-.14.14.2-.17.14Zm0,0Z"/><path id="_1-3" data-name="1" class="cls-2" d="M115.65,94.56l-.08-.2.11-.14.14.2-.17.14m0,0Z"/><path id="path6422" class="cls-1" d="M109.33,103.38l.51.2.26,1.93L110,106l-1.39-.05-.68-1.19,0-.49.31-.87,1.16-.06Zm0,0Z"/><path id="_1-4" data-name="1" class="cls-2" d="M109.33,103.38l.51.2.26,1.93L110,106l-1.39-.05-.68-1.19,0-.49.31-.87,1.16-.06m0,0Z"/><path id="path6456" class="cls-1" d="M114.8,91.79l-.48-.15,0-.31L115,91l.09-.42.11.59-.37.63Zm0,0Z"/><path id="_1-5" data-name="1" class="cls-2" d="M114.8,91.79l-.48-.15,0-.31L115,91l.09-.42.11.59-.37.63m0,0Z"/><path id="path6820" class="cls-1" d="M90.48,17l.37-.12.45.43.51,1.3-.11.26-1.16-.51-.68-.68,0-.74.36-.25.23.31Zm0,0Z"/><path id="_1-6" data-name="1" class="cls-2" d="M90.48,17l.37-.12.45.43.51,1.3-.11.26-1.16-.51-.68-.68,0-.74.36-.25.23.31m0,0Z"/><path id="path6822" class="cls-1" d="M92,.54l.23.2.45-.2.26.14.23-.31.56.54.46,0,1.07.54.29.54.65.22.42.65,1.45.46-.09.2-.31.11-.17.74-.34.42L96,5.3l-.65-.08-.26.31-.34-.29L94.59,6l.06.51.2.2,1.07-.2,1.17.71.79.23-.48.71h-.51l-.23.28.31.2-.22.31,0,.26.68-.2,0,.45.45.37-.23.68L97.11,10l-.34.39.43.66.23.85.45.05.23.26.11,1.07-.17.32-.4-.34-1,.25,0-.54-.4-.39.23-.26,0-.37-.42-.25-.74-.88-.77.91h-.42V11l.31-.15-.51-.28-.06-.51.66-.28-.09-.37-1.36.06-.37-.26,0-.25-.54.79-1,.59-.22,0L90.88,10l.82-1,.06-.46L91.56,8l-1-1-.34,0L90,7.11l.82,1.45,0,.43-.51.28-.26.45.23,1.14-.31.22L89.09,11l-1-.54L86.85,9.3l-.54-1.19-.7-1-.15-1-.28-.57V5l.71-1.5.54-.2.51-.62-.12-.32.8-.22-.34-.23.34-.45,1.27-.8.88.2.06,1.39L89,3.09l0,.51L89.43,3l1-.17.2.11-.45-.74.25-.37-.08-.36.93-.17L91.45,0l.22,0L92,.54Zm0,0Z"/><path id="_1-7" data-name="1" class="cls-2" d="M92,.54l.23.2.45-.2.26.14.23-.31.56.54.46,0,1.07.54.29.54.65.22.42.65,1.45.46-.09.2-.31.11-.17.74-.34.42L96,5.3l-.65-.08-.26.31-.34-.29L94.59,6l.06.51.2.2,1.07-.2,1.17.71.79.23-.48.71h-.51l-.23.28.31.2-.22.31,0,.26.68-.2,0,.45.45.37-.23.68L97.11,10l-.34.39.43.66.23.85.45.05.23.26.11,1.07-.17.32-.4-.34-1,.25,0-.54-.4-.39.23-.26,0-.37-.42-.25-.74-.88-.77.91h-.42V11l.31-.15-.51-.28-.06-.51.66-.28-.09-.37-1.36.06-.37-.26,0-.25-.54.79-1,.59-.22,0L90.88,10l.82-1,.06-.46L91.56,8l-1-1-.34,0L90,7.11l.82,1.45,0,.43-.51.28-.26.45.23,1.14-.31.22L89.09,11l-1-.54L86.85,9.3l-.54-1.19-.7-1-.15-1-.28-.57V5l.71-1.5.54-.2.51-.62-.12-.32.8-.22-.34-.23.34-.45,1.27-.8.88.2.06,1.39L89,3.09l0,.51L89.43,3l1-.17.2.11-.45-.74.25-.37-.08-.36.93-.17L91.45,0l.22,0L92,.54m0,0Z"/><path id="path6834" class="cls-1" d="M87.51,15.28l-.17-.06,0-.22.2-.23.25.31-.25.2Zm0,0Z"/><path id="_1-8" data-name="1" class="cls-2" d="M87.51,15.28l-.17-.06,0-.22.2-.23.25.31-.25.2m0,0Z"/><polygon id="path6836" class="cls-1" points="87.25 14.29 87.33 14.65 87 14.85 86.37 14.48 86.66 14.26 87.25 14.29"/><path id="path6844" class="cls-1" d="M85.8,11.57l.12,0-.09-.51.2.23.28,0,.2.28-.59.29.39.56-.48.26.74.17.71.54.65.11.06.28L86.57,14l-.71.6-.4-.15-.34-.68-.25.54-.6-.2-.08-1.53.45-1.3.26-.17h.56l.34.43Zm0,0Z"/><path id="_1-9" data-name="1" class="cls-2" d="M85.8,11.57l.12,0-.09-.51.2.23.28,0,.2.28-.59.29.39.56-.48.26.74.17.71.54.65.11.06.28L86.57,14l-.71.6-.4-.15-.34-.68-.25.54-.6-.2-.08-1.53.45-1.3.26-.17h.56l.34.43m0,0Z"/><path class="cls-1" d="M101.45,84.61,97,85.27c-.42-5.19.31-3.49-3.29-6.58-2.26-6.21-2-4.88.94-10.49.94-3.43.51-5.67,1.93-8.76,1.87-4.08,2.63-2.83,1-7.76-2.1-4.26-3.83-6.27-5.07-11.43l3.4-2.58c-2.44-8.64-.51-2.15.25-8.73-3.88-3.88-9.64-5.72-15.53-6.12L78.12,26.5c-10.88,2.92-1.67,3.12-15.19,1.93a34.87,34.87,0,0,1,0,4.79l.14-.37L67.24,39l1.22,8.78L66.7,58.11l4.22,2.64L60.38,74.81,74.07,93.6,59.16,114.15,52.3,105.9,39.66,98.7,25.77,94,16.1,95.19,10.74,98.7l3.46,2.67-.62,6.43a112.71,112.71,0,0,0-.31,13.13c0,6.86.79,4,3.62,8.84l-7.22,4.14c-4.09,2-2.7,0-7,1L0,144.23c8.33,1.33,7.91,3.94,9.69,7.14,1.25,2.27,2.44,7.31,10.27,7.74l2,1.1c9.66,3.8,10.74,3.94,21.6,0L51,157.41c4.87,3.57,8.81,3.43,15.16,1.13,4.48-1.61,2.66-.28,3.77-2.86-2.24-1-2.35.22-5.73,1.39l-3.37-2.84c1.31-7.14,2.69-6.46,5.59-11.79,4.11-7.57-2-7.11,3.09-13.38l6.8-5.81c1.73-1.3,4.65-3.09,6.18-4.42,1.84-1.62,2.49-3.32,4.45-5.16l4.87-6.8,4.54-5.05c3.4,1.39,1.42,1.9,5.58,2.61,1.11-3.38,1.14-7.54,1.51-11.2C104,87.36,104,89.23,101.45,84.61Z"/></svg>