<svg id="Layer_1" data-name="Layer 1" xmlns="http://www.w3.org/2000/svg" viewBox="0 0 121.27 101.56"><defs><style>.cls-1,.cls-2{fill:#8cb938;}.cls-1{fill-rule:evenodd;}</style></defs><path id="path6416" class="cls-1" d="M48.47,6.46h0l0-.08.14,0-.06,0Zm0,0Z"/><path id="_1" data-name="1" class="cls-2" d="M48.47,6.46h0l0-.08.14,0-.06,0m0,0Z"/><path id="path6454" class="cls-1" d="M51.36,78.69l.94.06.62.48.14.34,0,1.19-.28,1-.45.65-1.11.68-.57.06-1.16-.49L49.27,82l.08-.76,1.19-2.38.46-.31.36.11Zm0,0Z"/><path id="_1-2" data-name="1" class="cls-2" d="M51.36,78.69l.94.06.62.48.14.34,0,1.19-.28,1-.45.65-1.11.68-.57.06-1.16-.49L49.27,82l.08-.76,1.19-2.38.46-.31.36.11m0,0Z"/><polygon id="path6460" class="cls-1" points="42.15 72.79 41.98 72.68 42.26 72.57 42.35 72.68 42.15 72.79"/><path id="path6464" class="cls-1" d="M35.23,69.73l-.31,0v-.43l-.25-.4.31-.48L36.4,68l.08.37.57.26-.51.54-1.31.59Zm0,0Z"/><path id="_1-3" data-name="1" class="cls-2" d="M35.23,69.73l-.31,0v-.43l-.25-.4.31-.48L36.4,68l.08.37.57.26-.51.54-1.31.59m0,0Z"/><path id="path6466" class="cls-1" d="M32,68.91l-.34.2-.34.06.31-.32.54,0-.17.09Zm0,0Z"/><path id="_1-4" data-name="1" class="cls-2" d="M32,68.91l-.34.2-.34.06.31-.32.54,0-.17.09m0,0Z"/><path id="path6470" class="cls-1" d="M6.66,56.55l-.93.77-.26,1,.2.65-1.53-.08-1.36.37L2.3,60l-.4-1.53.42-.43-.19-.51.08-.42.68.28.82-.09.74-.51.26.09-.26-.28.09-.26.9.2L6.8,56.3l-.14.25Zm0,0Z"/><path id="_1-5" data-name="1" class="cls-2" d="M6.66,56.55l-.93.77-.26,1,.2.65-1.53-.08-1.36.37L2.3,60l-.4-1.53.42-.43-.19-.51.08-.42.68.28.82-.09.74-.51.26.09-.26-.28.09-.26.9.2L6.8,56.3l-.14.25m0,0Z"/><path id="path6472" class="cls-1" d="M7.29,63,7,62.48,7.26,62l.11.68L7.29,63Zm0,0Z"/><path id="_1-6" data-name="1" class="cls-2" d="M7.29,63,7,62.48,7.26,62l.11.68L7.29,63m0,0Z"/><path id="path6474" class="cls-1" d="M19.53,60.38l.2.56-.94.54-1-.37-.65.12-.23-.48.48.25,2.13-.62Zm0,0Z"/><path id="_1-7" data-name="1" class="cls-2" d="M19.53,60.38l.2.56-.94.54-1-.37-.65.12-.23-.48.48.25,2.13-.62m0,0Z"/><path id="path6476" class="cls-1" d="M7.4,61.4l-.11-.26L7.4,61l0,.08,0,.29Zm0,0Z"/><path id="_1-8" data-name="1" class="cls-2" d="M7.4,61.4l-.11-.26L7.4,61l0,.08,0,.29m0,0Z"/><path id="path6478" class="cls-1" d="M25.43,63.1l.08.14-.2,0,0-.08.15,0Zm0,0Z"/><path id="_1-9" data-name="1" class="cls-2" d="M25.43,63.1l.08.14-.2,0,0-.08.15,0m0,0Z"/><path id="path6480" class="cls-1" d="M1.67,61.54l0,.77-.34.28-.22.54H.57l-.51.28L0,63.18l.71-.28L1,62.14h.26l-.09-.49.34-.08L1.7,61l0,.51Zm0,0Z"/><path id="_1-10" data-name="1" class="cls-2" d="M1.67,61.54l0,.77-.34.28-.22.54H.57l-.51.28L0,63.18l.71-.28L1,62.14h.26l-.09-.49.34-.08L1.7,61l0,.51m0,0Z"/><path id="path6482" class="cls-1" d="M9.24,54.51l.2,0,0,1.39-1.31.34-.22.2-.77-.09,1.08-.76-.11-.23.17-.14.31.11L8.28,55l.51-.57.45.09Zm0,0Z"/><path id="_1-11" data-name="1" class="cls-2" d="M9.24,54.51l.2,0,0,1.39-1.31.34-.22.2-.77-.09,1.08-.76-.11-.23.17-.14.31.11L8.28,55l.51-.57.45.09m0,0Z"/><path id="path6484" class="cls-1" d="M35.49,45.16l.11.11-.31.34H34.7l.79-.45Zm0,0Z"/><path id="_1-12" data-name="1" class="cls-2" d="M35.49,45.16l.11.11-.31.34H34.7l.79-.45m0,0Z"/><path id="path6504" class="cls-1" d="M56.83,36.57l-.25.56-.45.37.28.65-.14.17.14.37-.17.17-.31-.28-.51.14-.51-.2-.4-.59v-.65l.23-.4-.06-.51,1.5.23.37-.37.28.34Zm0,0Z"/><path id="_1-13" data-name="1" class="cls-2" d="M56.83,36.57l-.25.56-.45.37.28.65-.14.17.14.37-.17.17-.31-.28-.51.14-.51-.2-.4-.59v-.65l.23-.4-.06-.51,1.5.23.37-.37.28.34m0,0Z"/><path id="path6510" class="cls-1" d="M66.81,33.48l-.25,0-.06.34-.34,0L66,33.19l.14-.36.68.19v.46Zm0,0Z"/><path id="_1-14" data-name="1" class="cls-2" d="M66.81,33.48l-.25,0-.06.34-.34,0L66,33.19l.14-.36.68.19v.46m0,0Z"/><path id="path6514" class="cls-1" d="M44.05,33.31l-.54-.06-1-.62-.79-1.42-.12-.74L42,29.28l.63-1.1,2.29-1.87.74-.06,1.5.54.4,1-.43,1.19-1.44,2.41-.91,1.16-.54.17.14.37-.28.26Zm0,0Z"/><path id="_1-15" data-name="1" class="cls-2" d="M44.05,33.31l-.54-.06-1-.62-.79-1.42-.12-.74L42,29.28l.63-1.1,2.29-1.87.74-.06,1.5.54.4,1-.43,1.19-1.44,2.41-.91,1.16-.54.17.14.37-.28.26m0,0Z"/><path id="path6516" class="cls-1" d="M81.86,33.28l-.7-.34v-.46l.48.23.22.57Zm0,0Z"/><path id="_1-16" data-name="1" class="cls-2" d="M81.86,33.28l-.7-.34v-.46l.48.23.22.57m0,0Z"/><path id="path6518" class="cls-1" d="M84.3,30.44h-.11l-.11-.73.68-.23.14.17-.06.28-.51.51Zm0,0Z"/><path id="_1-17" data-name="1" class="cls-2" d="M84.3,30.44h-.11l-.11-.73.68-.23.14.17-.06.28-.51.51m0,0Z"/><path id="path6520" class="cls-1" d="M63.86,28.66l.23.08-.17.12.14.14L63,29.37h-.79L62,29l.22-.34Zm0,0Z"/><path id="_1-18" data-name="1" class="cls-2" d="M63.86,28.66l.23.08-.17.12.14.14L63,29.37h-.79L62,29l.22-.34h1.67m0,0Z"/><path id="path6522" class="cls-1" d="M54.34,32.51l-.17.17-.31,0-1.42.88L50.26,35.4l-.85.09L49,35.12l-.05-.34.25-.91.46-.62.68-1.67,4-5.47L59,21.68l1.07-.39,1.31.2.57.76-.35,1.39-1.07,1.3-.82,1.48-.77.74-.45,1.19L55.11,31l-.66.82-.11.65Zm0,0Z"/><path id="_1-19" data-name="1" class="cls-2" d="M54.34,32.51l-.17.17-.31,0-1.42.88L50.26,35.4l-.85.09L49,35.12l-.05-.34.25-.91.46-.62.68-1.67,4-5.47L59,21.68l1.07-.39,1.31.2.57.76-.35,1.39-1.07,1.3-.82,1.48-.77.74-.45,1.19L55.11,31l-.66.82-.11.65m0,0Z"/><path id="path6524" class="cls-1" d="M51.48,25.65l.17.23L51.36,27l-1.19,1.13-.56.11-.15-.54L50,26.56l1-.79.57-.09Zm0,0Z"/><path id="_1-20" data-name="1" class="cls-2" d="M51.48,25.65l.17.23L51.36,27l-1.19,1.13-.56.11-.15-.54L50,26.56l1-.79.57-.09m0,0Z"/><path id="path6526" class="cls-1" d="M70,26.59l-.11-.28.06-.2,0,.28,0,.2Zm0,0Z"/><path id="_1-21" data-name="1" class="cls-2" d="M70,26.59l-.11-.28.06-.2,0,.28,0,.2m0,0Z"/><path id="path6528" class="cls-1" d="M73.81,25.65l-.48-.37L73.25,25l.62.54-.06.08Zm0,0Z"/><path id="_1-22" data-name="1" class="cls-2" d="M73.81,25.65l-.48-.37L73.25,25l.62.54-.06.08m0,0Z"/><path id="path6530" class="cls-1" d="M72.42,23l-.34.48-.53-.25.14-.46.22.26.46-.29,0,.26Zm0,0Z"/><path id="_1-23" data-name="1" class="cls-2" d="M72.42,23l-.34.48-.53-.25.14-.46.22.26.46-.29,0,.26m0,0Z"/><path id="path6532" class="cls-1" d="M51.36,11.42l.12.12-.09.25L51,11.42Zm0,0Z"/><path id="_1-24" data-name="1" class="cls-2" d="M51.36,11.42l.12.12-.09.25L51,11.42h.34m0,0Z"/><polygon id="path6534" class="cls-1" points="50.54 8.79 49.38 11.39 48.76 12.33 47.65 12.76 47.14 12.7 46.12 11.93 45.89 11.56 45.92 9.92 46.01 9.52 46.49 8.9 47.99 8.76 48.9 8.9 49.86 8.62 50.54 8.79"/><path id="path6536" class="cls-1" d="M43.06,22.08,42.6,22l.12-1.9L43.14,19l.51-.65.32-.08.22.17,0,1.84-.39.28-.34.77-.29.11-.08.65Zm0,0Z"/><path id="_1-25" data-name="1" class="cls-2" d="M43.06,22.08,42.6,22l.12-1.9L43.14,19l.51-.65.32-.08.22.17,0,1.84-.39.28-.34.77-.29.11-.08.65m0,0Z"/><path id="path6538" class="cls-1" d="M44.65,21.86l-.23-.06v-.31l.42-.6,0,.54-.22.43Zm0,0Z"/><path id="_1-26" data-name="1" class="cls-2" d="M44.65,21.86l-.23-.06v-.31l.42-.6,0,.54-.22.43m0,0Z"/><path id="path6540" class="cls-1" d="M62.45,17.66l-.34-.14L63,17l-.23.39-.31.26Zm0,0Z"/><path id="_1-27" data-name="1" class="cls-2" d="M62.45,17.66l-.34-.14L63,17l-.23.39-.31.26m0,0Z"/><path id="path6544" class="cls-1" d="M63.75,16.75l-.14-.11.71-.94,0,.49-.6.56Zm0,0Z"/><path id="_1-28" data-name="1" class="cls-2" d="M63.75,16.75l-.14-.11.71-.94,0,.49-.6.56m0,0Z"/><path id="path6546" class="cls-1" d="M67.72,21l.31.09-.74.54-.62-.46.62-.28.43.11Zm0,0Z"/><path id="_1-29" data-name="1" class="cls-2" d="M67.72,21l.31.09-.74.54-.62-.46.62-.28.43.11m0,0Z"/><path id="path6548" class="cls-1" d="M56.18,14.85l1.33.4L58,16l-.09,1.33-.48,1.62-.45.85-.54.51-1.22.82-1.31.42L53,21.29l-.28-2L53,18.2l.31-.09.51-1-.06-1.05.26-.9.85-.32Zm0,0Z"/><path id="_1-30" data-name="1" class="cls-2" d="M56.18,14.85l1.33.4L58,16l-.09,1.33-.48,1.62-.45.85-.54.51-1.22.82-1.31.42L53,21.29l-.28-2L53,18.2l.31-.09.51-1-.06-1.05.26-.9.85-.32h1.27m0,0Z"/><polygon id="path6550" class="cls-1" points="64.6 15.51 64.4 15.48 64.52 15.25 64.77 14.94 65.11 14.91 65.14 15.05 64.6 15.51"/><path id="path6552" class="cls-1" d="M52,14.54l-.2.26L51,14.68l-.37.15.09.25.62.43v.65l-.79.34-.23,1.07-.51.15.17.65-.2.76-.7.12,0,.56-.73.2-.06.6-.26.11-.28-.25-.2.51-.17-.12v-.28l-.74.51-.28-.31L46.29,20l.25-.68,0-1.39.19-.39.6-.54.91-.46.56-.7,3.43-2.56,1.62-2,.65-.14.51.17.2.48-.2.6-.34.22-1.3.23-.57.4-.48.37-.34.93Zm0,0Z"/><path id="_1-31" data-name="1" class="cls-2" d="M52,14.54l-.2.26L51,14.68l-.37.15.09.25.62.43v.65l-.79.34-.23,1.07-.51.15.17.65-.2.76-.7.12,0,.56-.73.2-.06.6-.26.11-.28-.25-.2.51-.17-.12v-.28l-.74.51-.28-.31L46.29,20l.25-.68,0-1.39.19-.39.6-.54.91-.46.56-.7,3.43-2.56,1.62-2,.65-.14.51.17.2.48-.2.6-.34.22-1.3.23-.57.4-.48.37-.34.93m0,0Z"/><path id="path6832" class="cls-1" d="M43.23,1.08l.45.62,0,.57h-.32l-.54-.6,0-.37.48-.22Zm0,0Z"/><path id="_1-32" data-name="1" class="cls-2" d="M43.23,1.08l.45.62,0,.57h-.32l-.54-.6,0-.37.48-.22m0,0Z"/><path id="path6838" class="cls-1" d="M55,2.83l.4,0,.09.29-.74,1.07-.4.12-.08-.74L54.42,3l.54-.2Zm0,0Z"/><path id="_1-33" data-name="1" class="cls-2" d="M55,2.83l.4,0,.09.29-.74,1.07-.4.12-.08-.74L54.42,3l.54-.2m0,0Z"/><polygon id="path6840" class="cls-1" points="48.47 2.81 48.64 2.83 48.61 3.03 48.3 2.95 48.47 2.81"/><path id="path6842" class="cls-1" d="M50.77,1.36l-.68,1.56-1.28-.17-.56-.51,0-.62h.34l.17.31.26.08L49,1.67l1-.76,0-.48L50.63,0l.19.09L51,.45l-.2.91Zm0,0Z"/><path id="_1-34" data-name="1" class="cls-2" d="M50.77,1.36l-.68,1.56-1.28-.17-.56-.51,0-.62h.34l.17.31.26.08L49,1.67l1-.76,0-.48L50.63,0l.19.09L51,.45l-.2.91m0,0Z"/><path class="cls-1" d="M121.27,81l-14.91,20.55L99.5,93.32l-12.65-7.2L73,81.38,63.3,82.6l-5.36,3.52-2.07-1.48C54,81.27,55.87,78,53,74.89c-2.53-2.49-1.51-5.75-2.81-8.81C49.07,63.3,47,60,49.35,56.64L52,52.55l3.91-5.78,3.34-6.6,5.22.25,2.61-.14,2.18-.74,1.61-.31,8.71-.31,2-.62.23-.51,1.33-1.54,3.46-2.09,4.93-1.87,5-1.85,2.27-1.24,1.73-1.34,2.94-3.77,3.75-.17,1.75-.11,1.34-3.54,4.13,6.12,1.22,8.79L113.9,45.52l4.22,2.64L107.57,62.22Z"/></svg>