<svg id="Layer_1" data-name="Layer 1" xmlns="http://www.w3.org/2000/svg" viewBox="0 0 41.55 35.99"><defs><style>.cls-1,.cls-2{fill:#8cb938;}.cls-1{fill-rule:evenodd;}</style></defs><path class="cls-1" d="M4.53,7.85,2.44,11l-1-.28-.8,3c-2,2,1.65,5.3.09,9.19l3.48,2.83L8.93,30.1a16.54,16.54,0,0,0,2.92,2.95c2.29,2,1.73,1.19,3.4,2.38,4.87,2.33,14.06-3.23,18.85-4.7l1.56.17V29.2l.56-2,4.06-3c.2-.26.74-.63.79-1a2,2,0,0,1,.48-.91l-1.81-1.22-4.82-3.43c-1.73-1.59-3.15-1.59-4.85,0-3.54,2.13-4.7,2.49-8.47-.09l1.5-4.67,13.49,1.5c2.5-3.15,2-1.64,4.08-3.6C39.91,9.55,39.2,8.33,38,8.31L28.66,8c-5-1.07-9.13-2.07-14-3.06C13.55,2.64,13.77.65,10.23,0Z"/><path id="path6814" class="cls-1" d="M37.9,15.39l.39-.05.2.22.6.12.25,1.13,1,.62.23.74-.17.48-.51.23-.37-.14-.59.17.19-.4-.36-1.28L38,16.75l-1.82.12v-.4l.77-.28L36.82,16l.42-.85.66.22Zm0,0Z"/><path id="_1" data-name="1" class="cls-2" d="M37.9,15.39l.39-.05.2.22.6.12.25,1.13,1,.62.23.74-.17.48-.51.23-.37-.14-.59.17.19-.4-.36-1.28L38,16.75l-1.82.12v-.4l.77-.28L36.82,16l.42-.85.66.22m0,0Z"/></svg>