<svg id="Layer_1" data-name="Layer 1" xmlns="http://www.w3.org/2000/svg" viewBox="0 0 265.18 204.12"><defs><style>.cls-1,.cls-2{fill:#8cb938;}.cls-1{fill-rule:evenodd;}</style></defs><path id="path6294" class="cls-1" d="M263.39,202.62l-.62.08-.62,1.11-.43.31-.51-.05.65-3.55-.17-.34.23-.45,1.16-1,.6-.23,1,.28.51.8-.17,1.22-1.62,1.81Zm0,0Z"/><path id="_1" data-name="1" class="cls-2" d="M263.39,202.62l-.62.08-.62,1.11-.43.31-.51-.05.65-3.55-.17-.34.23-.45,1.16-1,.6-.23,1,.28.51.8-.17,1.22-1.62,1.81m0,0Z"/><path id="path6296" class="cls-1" d="M121.46,145.33l.83.26,3.43,2.58,1.38.25.54.34-.22.2.2.28,1.21.49,2.53,1.53.93.85.57.11.76,1.28.8,2.52.45.65,1.62,4,.34.62.45.2.31.68,1.14,4.76.37.48.31-.11.65.6.54,1.53.34,1.73.22.05.46,1,.68,2.13.14,1.3-.11,1.05-.77,1.28-1.47,1.13-.77.37-1,.06-1.62.42-1.3.6-1.08.82-.51.08-.45-.45-.88-2.1-.2-1.73.43-.76,1.7-1.5.51-1,0-2.8-.6-1.39-1.61-1.25-1.67-.08-1,.2-1.87-.51-1.7-.06-1-.79-1.27-.63-2.41-.74-1.62-.22-1-1-.06-1-.93-2.44-1.68-2-.17-1.05.17-1,1.22-1.08.8-2.09v-1l-.51-1.85.25-.39v-.46l1.25-1.81.51-1.36.34-1.67,1.1-.12Zm0,0Z"/><path id="_1-2" data-name="1" class="cls-2" d="M121.46,145.33l.83.26,3.43,2.58,1.38.25.54.34-.22.2.2.28,1.21.49,2.53,1.53.93.85.57.11.76,1.28.8,2.52.45.65,1.62,4,.34.62.45.2.31.68,1.14,4.76.37.48.31-.11.65.6.54,1.53.34,1.73.22.05.46,1,.68,2.13.14,1.3-.11,1.05-.77,1.28-1.47,1.13-.77.37-1,.06-1.62.42-1.3.6-1.08.82-.51.08-.45-.45-.88-2.1-.2-1.73.43-.76,1.7-1.5.51-1,0-2.8-.6-1.39-1.61-1.25-1.67-.08-1,.2-1.87-.51-1.7-.06-1-.79-1.27-.63-2.41-.74-1.62-.22-1-1-.06-1-.93-2.44-1.68-2-.17-1.05.17-1,1.22-1.08.8-2.09v-1l-.51-1.85.25-.39v-.46l1.25-1.81.51-1.36.34-1.67,1.1-.12m0,0Z"/><path id="path6298" class="cls-1" d="M93.15,124.72l.08-1.5.34-.37.14.71-.17.71-.39.45Zm0,0Z"/><path id="_1-3" data-name="1" class="cls-2" d="M93.15,124.72l.08-1.5.34-.37.14.71-.17.71-.39.45m0,0Z"/><path id="path6300" class="cls-1" d="M100.8,118.37l-.06.17,1.62,1.37.68.87.25.06,2.78,2.24.23.28,0,.29-.68,0-1-.63-1.62-.53-2.29-.46-1.39.2-.46-2.75.63-1,1.24-.2.09.14Zm0,0Z"/><path id="_1-4" data-name="1" class="cls-2" d="M100.8,118.37l-.06.17,1.62,1.37.68.87.25.06,2.78,2.24.23.28,0,.29-.68,0-1-.63-1.62-.53-2.29-.46-1.39.2-.46-2.75.63-1,1.24-.2.09.14m0,0Z"/><path id="path6302" class="cls-1" d="M102.22,128.27l1-.2,1.05.2.14-.23,1,0,.51-.22,1.81.11.82.23,1.25.48,1,.9.23,0-.57.36.45,0-.31.2.12.45-.26.17.26.15.42-.23-.14.62-.37.88-.85.71-.23-.2-.93.29-.37-.34-.88.42-1.59-.25-1.07-.94-.88-.45-2.1-2-.31-.09-.46-.59.26-.17-.31-.68,1.22.48Zm0,0Z"/><path id="_1-5" data-name="1" class="cls-2" d="M102.22,128.27l1-.2,1.05.2.14-.23,1,0,.51-.22,1.81.11.82.23,1.25.48,1,.9.23,0-.57.36.45,0-.31.2.12.45-.26.17.26.15.42-.23-.14.62-.37.88-.85.71-.23-.2-.93.29-.37-.34-.88.42-1.59-.25-1.07-.94-.88-.45-2.1-2-.31-.09-.46-.59.26-.17-.31-.68,1.22.48m0,0Z"/><path id="path6304" class="cls-1" d="M200.07,126.91l.28,0,.17.37-.2.8-.54-.31-.17-.54.46-.34Zm0,0Z"/><path id="_1-6" data-name="1" class="cls-2" d="M200.07,126.91l.28,0,.17.37-.2.8-.54-.31-.17-.54.46-.34m0,0Z"/><path id="path6306" class="cls-1" d="M103.41,109.28l1.07.08.2.54,1.22-.68,3.21.42,1.92.71,1.11.14,1.19.68,1.59.43,2.32,1.87,1.13,1.56.6,0,1.16,1.1,1.82,1.17,1.5.19.48-.14.68.48.31.74,0,.28-.62.66-.65.25-1.05.77-.4,0-.48.2-.34-.14-2.44,1.16-.56-.12-3.86.94-2.55.37-1.56-.26-1.1.09-.77-.48-1.59-.29-1.73-.65-.17-.11V121l-.76-.34-1.9-2-.28-.06-.83-1.64-.34-.34-.25.08-.23-1.07-.71-.66-.71-1,.26-2.36-.2-.39.31-.06.23-.28.17-.63.79-.11.8-1.42.34-.23.73.15.57.56.4.15Zm0,0Z"/><path id="_1-7" data-name="1" class="cls-2" d="M103.41,109.28l1.07.08.2.54,1.22-.68,3.21.42,1.92.71,1.11.14,1.19.68,1.59.43,2.32,1.87,1.13,1.56.6,0,1.16,1.1,1.82,1.17,1.5.19.48-.14.68.48.31.74,0,.28-.62.66-.65.25-1.05.77-.4,0-.48.2-.34-.14-2.44,1.16-.56-.12-3.86.94-2.55.37-1.56-.26-1.1.09-.77-.48-1.59-.29-1.73-.65-.17-.11V121l-.76-.34-1.9-2-.28-.06-.83-1.64-.34-.34-.25.08-.23-1.07-.71-.66-.71-1,.26-2.36-.2-.39.31-.06.23-.28.17-.63.79-.11.8-1.42.34-.23.73.15.57.56.4.15m0,0Z"/><polygon id="path6308" class="cls-1" points="235.53 108.68 234.82 108.99 235.25 108.37 236.38 108 235.53 108.68"/><path id="path6310" class="cls-1" d="M198.88,17.63l1.3.2,2.07,1.56.45.71.4.22.23.49.14,0v-.23l.11.09,1,1.87-.17,1-.36.54-1.82-.31-1.42-.8L200,22l-1.81-2.44-.91-1.93.77.43.05-.26.77-.17Zm0,0Z"/><path id="_1-8" data-name="1" class="cls-2" d="M198.88,17.63l1.3.2,2.07,1.56.45.71.4.22.23.49.14,0v-.23l.11.09,1,1.87-.17,1-.36.54-1.82-.31-1.42-.8L200,22l-1.81-2.44-.91-1.93.77.43.05-.26.77-.17m0,0Z"/><path id="path6316" class="cls-1" d="M43.2,12.22l-.71-.85.2-.23.45.6.06.48Zm0,0Z"/><path id="_1-9" data-name="1" class="cls-2" d="M43.2,12.22l-.71-.85.2-.23.45.6.06.48m0,0Z"/><path id="path6318" class="cls-1" d="M43,13l-.14.23h-.14l.08-.23Zm0,0Z"/><path id="_1-10" data-name="1" class="cls-2" d="M43,13l-.14.23h-.14l.08-.23H43m0,0Z"/><path id="path6320" class="cls-1" d="M192.13,12.08l-.45-.15-.8-.68.43-.65.48-.23.45.17.37.52,0,.53-.46.49Zm0,0Z"/><path id="_1-11" data-name="1" class="cls-2" d="M192.13,12.08l-.45-.15-.8-.68.43-.65.48-.23.45.17.37.52,0,.53-.46.49m0,0Z"/><path id="path6328" class="cls-1" d="M34.61,36.08l.74.12.85.42,2.21,1.87,2.86,1.36.37.63-.17,1.1-.59,0-.63,1.21-.62.46-.91.34L38,43.51l-2.32-1.25-2.16-.51-.45-.45-.54-.08L32,40.9l-.2-.39h-.37l-1.16-.68L28.2,38l.32-.59,2-.49,2-.05,1.08.22.31-.19.31-.86Zm0,0Z"/><path id="_1-12" data-name="1" class="cls-2" d="M34.61,36.08l.74.12.85.42,2.21,1.87,2.86,1.36.37.63-.17,1.1-.59,0-.63,1.21-.62.46-.91.34L38,43.51l-2.32-1.25-2.16-.51-.45-.45-.54-.08L32,40.9l-.2-.39h-.37l-1.16-.68L28.2,38l.32-.59,2-.49,2-.05,1.08.22.31-.19.31-.86h.4m0,0Z"/><path id="path6330" class="cls-1" d="M31.63,32.77l.94,1-.11.37L32.29,34l-.66.32-.19-.29-.37,0-.34.11.11.2-.14.05-.4-.31.14.31H30l-.14.32h-.23l-.2-.37-.05-1.28,1,.06,1.24-.34Zm0,0Z"/><path id="_1-13" data-name="1" class="cls-2" d="M31.63,32.77l.94,1-.11.37L32.29,34l-.66.32-.19-.29-.37,0-.34.11.11.2-.14.05-.4-.31.14.31H30l-.14.32h-.23l-.2-.37-.05-1.28,1,.06,1.24-.34m0,0Z"/><path id="path6332" class="cls-1" d="M41.24,32.06l.06.68-.4,0-.39.65.25.17-.59.37-1.11,0-.85-.51-.06-.4.77-.48L39,32.2l1.65-.48.59.34Zm0,0Z"/><path id="_1-14" data-name="1" class="cls-2" d="M41.24,32.06l.06.68-.4,0-.39.65.25.17-.59.37-1.11,0-.85-.51-.06-.4.77-.48L39,32.2l1.65-.48.59.34m0,0Z"/><path id="path6334" class="cls-1" d="M33,32.46h.11v.14l-.28-.12.17,0Zm0,0Z"/><path id="_1-15" data-name="1" class="cls-2" d="M33,32.46h.11v.14l-.28-.12.17,0m0,0Z"/><path id="path6336" class="cls-1" d="M31.86,32.31l-.06-.22L32,32l0,.23-.09.11Zm0,0Z"/><path id="_1-16" data-name="1" class="cls-2" d="M31.86,32.31l-.06-.22L32,32l0,.23-.09.11m0,0Z"/><path id="path6338" class="cls-1" d="M17.12,29.08l-.06,0,0-.14.09.06-.06.11Zm0,0Z"/><path id="_1-17" data-name="1" class="cls-2" d="M17.12,29.08l-.06,0,0-.14.09.06-.06.11m0,0Z"/><path id="path6340" class="cls-1" d="M17.52,28.91l-.46-.37v-.11l.54.4-.08.08Zm0,0Z"/><path id="_1-18" data-name="1" class="cls-2" d="M17.52,28.91l-.46-.37v-.11l.54.4-.08.08m0,0Z"/><path id="path6342" class="cls-1" d="M1.76,18.45,3,18.6l1,.93,2.46.57,1.14.68.25-.12.46.54-.12.29.48.37-.25,1,1.25,1.05.56.88.8.34L13.24,27l.56.08.94-.25-.06.73.6.34-.57,1.45.12.37H15L15,30l1.24,0,1.08-.88.4-.05.34.23-.12,1-.39.42-.8.34-1.5-.17-.31.2-1-.71-.77-.85-1-.14L11.91,29l-.57-.2-1.79-.12-.17-.51-1.47-.93-.82-.09-.57-.28-.62,0-.37-.28-1.14-.12-.34-.34-.34-.05L2.55,24.75l-.17-.91L1.25,22.45.11,20.18,0,19.28l.43-.66,1.33-.17Zm0,0Z"/><path id="_1-19" data-name="1" class="cls-2" d="M1.76,18.45,3,18.6l1,.93,2.46.57,1.14.68.25-.12.46.54-.12.29.48.37-.25,1,1.25,1.05.56.88.8.34L13.24,27l.56.08.94-.25-.06.73.6.34-.57,1.45.12.37H15L15,30l1.24,0,1.08-.88.4-.05.34.23-.12,1-.39.42-.8.34-1.5-.17-.31.2-1-.71-.77-.85-1-.14L11.91,29l-.57-.2-1.79-.12-.17-.51-1.47-.93-.82-.09-.57-.28-.62,0-.37-.28-1.14-.12-.34-.34-.34-.05L2.55,24.75l-.17-.91L1.25,22.45.11,20.18,0,19.28l.43-.66,1.33-.17m0,0Z"/><path id="path6346" class="cls-1" d="M28.63.65l.54,0L31.66,2.3l.57.08L37.05,4.9l2.8,3.29.23,0,.82.91.8,2.18,0,1.08-1,4.59-.42,1.73-.63,1.42-.42,2.21,0,.76.37.57.25,1.87.63,2-.09.63-.34.76-.4.37-.9.4-.68-.06-.66.51-.25,0-.71.71-.08.29-.86.65-.28,0-.17-.26-.34.06.26-.25-.29-1L35,30h.23l-.09-.54-.76,1.14L33.25,31l-.4-.11-.22-.31-.26.25-.14-.28-.79-.17-.06.48.4.65.42-.28.43.14-.54.09,0,.31-.48.06-.42.45L30.67,32l-.28.4-.2,0L29.71,32l-1.17-.2-.62-.39-.65,0-.77-.6-2.43-2.35L22.9,27l-.79-.48-.62-.77-.37-.08-.37-.52L18,22.93l-.62-1.05,0-.51-.28-.31-.2,0,.43-.31v-.2l-.23,0L17,18.88l-.57-1.22L15.25,16l-.48-1.48.08-4-1.3-3.55-.68-2.49L13.21,3l1.25-1.59L15.73.48,16.19.4l5.69.71L26.93,0l1.7.65Zm0,0Z"/><path id="_1-20" data-name="1" class="cls-2" d="M28.63.65l.54,0L31.66,2.3l.57.08L37.05,4.9l2.8,3.29.23,0,.82.91.8,2.18,0,1.08-1,4.59-.42,1.73-.63,1.42-.42,2.21,0,.76.37.57.25,1.87.63,2-.09.63-.34.76-.4.37-.9.4-.68-.06-.66.51-.25,0-.71.71-.08.29-.86.65-.28,0-.17-.26-.34.06.26-.25-.29-1L35,30h.23l-.09-.54-.76,1.14L33.25,31l-.4-.11-.22-.31-.26.25-.14-.28-.79-.17-.06.48.4.65.42-.28.43.14-.54.09,0,.31-.48.06-.42.45L30.67,32l-.28.4-.2,0L29.71,32l-1.17-.2-.62-.39-.65,0-.77-.6-2.43-2.35L22.9,27l-.79-.48-.62-.77-.37-.08-.37-.52L18,22.93l-.62-1.05,0-.51-.28-.31-.2,0,.43-.31v-.2l-.23,0L17,18.88l-.57-1.22L15.25,16l-.48-1.48.08-4-1.3-3.55-.68-2.49L13.21,3l1.25-1.59L15.73.48,16.19.4l5.69.71L26.93,0l1.7.65m0,0Z"/><polygon id="path6354" class="cls-1" points="133.91 94.39 133.48 93.91 133.37 93.2 133.51 93.6 133.91 94.39"/><polygon id="path6358" class="cls-1" points="93.54 69.7 93.37 69.65 93.37 69.48 93.57 69.53 93.54 69.7"/><path id="path6360" class="cls-1" d="M93.91,68.8l-.23-.06-.14-.51.46,0-.09.6Zm0,0Z"/><path id="_1-21" data-name="1" class="cls-2" d="M93.91,68.8l-.23-.06-.14-.51.46,0-.09.6m0,0Z"/><path id="path6362" class="cls-1" d="M93.54,68.06l-.28-.2v-.51l.34.2-.06.51Zm0,0Z"/><path id="_1-22" data-name="1" class="cls-2" d="M93.54,68.06l-.28-.2v-.51l.34.2-.06.51m0,0Z"/><path id="path6374" class="cls-1" d="M68.26,58.25,68,58l-.08-.36.28.05.09.54Zm0,0Z"/><path id="_1-23" data-name="1" class="cls-2" d="M68.26,58.25,68,58l-.08-.36.28.05.09.54m0,0Z"/><path id="path6376" class="cls-1" d="M71.49,48.9l.25,0v-.23L72,49l-.23.34.4.54.06.62.31.34.54.06.88,1,.53.88-.11.43-1.25-.37L72.79,52l-.28,0-.43.22-.79-.7-.93.65-.37.59-.4-.14-.54.48-.2-.17-.28.12.08-3.83.2-.28.94-.17.31-.23,0,.4.74.19.19-.19-.25-.15.06-.25.22-.14.34,0,.06.46Zm0,0Z"/><path id="_1-24" data-name="1" class="cls-2" d="M71.49,48.9l.25,0v-.23L72,49l-.23.34.4.54.06.62.31.34.54.06.88,1,.53.88-.11.43-1.25-.37L72.79,52l-.28,0-.43.22-.79-.7-.93.65-.37.59-.4-.14-.54.48-.2-.17-.28.12.08-3.83.2-.28.94-.17.31-.23,0,.4.74.19.19-.19-.25-.15.06-.25.22-.14.34,0,.06.46m0,0Z"/><path id="path6378" class="cls-1" d="M65.28,55.73l.26.14-.2.51-.2-.06-.09-.39.23-.2Zm0,0Z"/><path id="_1-25" data-name="1" class="cls-2" d="M65.28,55.73l.26.14-.2.51-.2-.06-.09-.39.23-.2m0,0Z"/><path id="path6382" class="cls-1" d="M83.28,75.57l-.31.17.14.17.31-.14.06.2-1,0-.42.29-.34,0,1-.82.4,0,.17.14Zm0,0Z"/><path id="_1-26" data-name="1" class="cls-2" d="M83.28,75.57l-.31.17.14.17.31-.14.06.2-1,0-.42.29-.34,0,1-.82.4,0,.17.14m0,0Z"/><path id="path6386" class="cls-1" d="M87.14,70.1l0,.2.6.2-.17.2.28.48.68.54.43.19.71-.11.51.4.25-.06-.2.17.15.63-.34.11v.2l.28.28.45.06.29.56,1.5.37.42-.11.51.51.2-.23.68-.11,1.48.28.62.82-.17,1.45.14.31-.39.4-.2-.23-.54.14-.14.26-1.11-.31.48.85-.22.45-.17-.06.11.34-.6.43-1.41.34-.8-.4-.17.29-.14-.37-.57-.4-2.15-.71-3.57-.2-.62-.87-.34,0L84,77,85,76,85,75.68l-.45-.08L84,74.78l.17-.09-.06-.62.2-.31-.42-1.19.37-.71,1-.51,1-1,.51-.29.37,0Zm0,0Z"/><path id="_1-27" data-name="1" class="cls-2" d="M87.14,70.1l0,.2.6.2-.17.2.28.48.68.54.43.19.71-.11.51.4.25-.06-.2.17.15.63-.34.11v.2l.28.28.45.06.29.56,1.5.37.42-.11.51.51.2-.23.68-.11,1.48.28.62.82-.17,1.45.14.31-.39.4-.2-.23-.54.14-.14.26-1.11-.31.48.85-.22.45-.17-.06.11.34-.6.43-1.41.34-.8-.4-.17.29-.14-.37-.57-.4-2.15-.71-3.57-.2-.62-.87-.34,0L84,77,85,76,85,75.68l-.45-.08L84,74.78l.17-.09-.06-.62.2-.31-.42-1.19.37-.71,1-.51,1-1,.51-.29.37,0m0,0Z"/><path id="path6388" class="cls-1" d="M82.32,77.36h.93l.43.25-.57.54-.51.06.34.59-.45.23,0,.25.74,0-.37.76,0,.23L82,81l-.4-.25-.31-.6L82,78.38,81.64,77l.31-.17v.2l.37.31Zm0,0Z"/><path id="_1-28" data-name="1" class="cls-2" d="M82.32,77.36h.93l.43.25-.57.54-.51.06.34.59-.45.23,0,.25.74,0-.37.76,0,.23L82,81l-.4-.25-.31-.6L82,78.38,81.64,77l.31-.17v.2l.37.31m0,0Z"/><path id="path6390" class="cls-1" d="M94.54,68.91l.59-.06,0,.49-.31.73-.34.2-.4,0-.43-.31,0-.42.37-.12.14-.68.32.2Zm0,0Z"/><path id="_1-29" data-name="1" class="cls-2" d="M94.54,68.91l.59-.06,0,.49-.31.73-.34.2-.4,0-.43-.31,0-.42.37-.12.14-.68.32.2m0,0Z"/><path id="path6392" class="cls-1" d="M92.72,65.93l.4-.14.2.46-.29.34,0,.51-.51.53,0,1.62-.29,0-.53-1-.06.71.28.2-.56.37.17,0,.28-.28.11.51.43.06.39-.34.54,0-.45.36.45.23-.2.26.06.19-.82.57,0,.43L91,72.08l-.08-.14.22-.17.54-.14-.85.17L89.09,71l-.82.08,0-.25.43-.34-.2-.2.11-1,1.36-.8.77-1.13,1.05-.65.22-.65.49-.26.25.14Zm0,0Z"/><path id="_1-30" data-name="1" class="cls-2" d="M92.72,65.93l.4-.14.2.46-.29.34,0,.51-.51.53,0,1.62-.29,0-.53-1-.06.71.28.2-.56.37.17,0,.28-.28.11.51.43.06.39-.34.54,0-.45.36.45.23-.2.26.06.19-.82.57,0,.43L91,72.08l-.08-.14.22-.17.54-.14-.85.17L89.09,71l-.82.08,0-.25.43-.34-.2-.2.11-1,1.36-.8.77-1.13,1.05-.65.22-.65.49-.26.25.14m0,0Z"/><path id="path6394" class="cls-1" d="M53,51.56l1.47.68L55.3,52l2.55,1.47.94-.06.54-.53.34.19,1.1.12.74.39.63.51.17.37-.06.49-.43.48.26.68.4,0,.48.34.68.05L64.8,57l.34.26.45.73.26-.14.65.26.2-.23L67,58l0-.43.23.06.14.31.31-.06-.22.34.28.74,1.56.51.34.54.26,0,.65.71.42.11.63,1,.42-.26-.4.34.23.77-.2.28.57.25.4.83.39.22,0,.17.65.57-.06.45.48.09.48.71,1.17.56,1.61,1.34.09.25.34-.11.51.42.2.94.31.08-.14.15.11.59.14-.37.31.17v.26l.43.31-.12.25.32-.08-.09.31.23.4.59.39.49-.31,1.24.29,1.14-.17,0,.39-.51.23,1,.88L84,74l-.26.19v.66L83,74.66l-.31.17-1.25-.08-.31.42-.45,0-.68.39-.12.37-.42.06-.29.4.09.48.22.22,2.24.88.15.4-.54.93-.29,1,.34.34.4,1.14-1.59-.46-.48-.76-1.9-.34-.48-.4L75.06,80l-1.44-.45-.46-.34-.45-.77-.17-.85-1.31-1.78.2-.23,0-.4-.82-1.07-.25-.85-.85-.86.11-.19-.34-.43-.71-.25-.37-.43,0-.62.11.08.06-.22.39-.2,0-.17-1-.88-.17-.43-1.78-2-2.3-1.9L62,64.43l-3.58-3.77.06-.34-.28,0L57.66,60l-.37-.68.2-.28L56.89,58l-.45-.26,0-.25-.94-1.16-.23-.6-.14.06v-.23L53.8,53.4l-.45-.28L52.1,51.65l.37-.29.51.2Zm0,0Z"/><path id="_1-31" data-name="1" class="cls-2" d="M53,51.56l1.47.68L55.3,52l2.55,1.47.94-.06.54-.53.34.19,1.1.12.74.39.63.51.17.37-.06.49-.43.48.26.68.4,0,.48.34.68.05L64.8,57l.34.26.45.73.26-.14.65.26.2-.23L67,58l0-.43.23.06.14.31.31-.06-.22.34.28.74,1.56.51.34.54.26,0,.65.71.42.11.63,1,.42-.26-.4.34.23.77-.2.28.57.25.4.83.39.22,0,.17.65.57-.06.45.48.09.48.71,1.17.56,1.61,1.34.09.25.34-.11.51.42.2.94.31.08-.14.15.11.59.14-.37.31.17v.26l.43.31-.12.25.32-.08-.09.31.23.4.59.39.49-.31,1.24.29,1.14-.17,0,.39-.51.23,1,.88L84,74l-.26.19v.66L83,74.66l-.31.17-1.25-.08-.31.42-.45,0-.68.39-.12.37-.42.06-.29.4.09.48.22.22,2.24.88.15.4-.54.93-.29,1,.34.34.4,1.14-1.59-.46-.48-.76-1.9-.34-.48-.4L75.06,80l-1.44-.45-.46-.34-.45-.77-.17-.85-1.31-1.78.2-.23,0-.4-.82-1.07-.25-.85-.85-.86.11-.19-.34-.43-.71-.25-.37-.43,0-.62.11.08.06-.22.39-.2,0-.17-1-.88-.17-.43-1.78-2-2.3-1.9L62,64.43l-3.58-3.77.06-.34-.28,0L57.66,60l-.37-.68.2-.28L56.89,58l-.45-.26,0-.25-.94-1.16-.23-.6-.14.06v-.23L53.8,53.4l-.45-.28L52.1,51.65l.37-.29.51.2m0,0Z"/></svg>