<svg id="Layer_1" data-name="Layer 1" xmlns="http://www.w3.org/2000/svg" viewBox="0 0 163.4 87.37"><defs><style>.cls-1,.cls-2{fill:#8cb938;}.cls-1{fill-rule:evenodd;}</style></defs><path class="cls-1" d="M87.16,5.3l1.59,5.25L86,13.38c1.37,14.29,4.09,9-5.58,20.07-4.82,5.5-5.27,14.71-3.91,21.94l3.8,3.69,12.55-.71,7.83-2.81,2.49-1.1c.4-4,1-3.46-.65-6.72l-.11-4.93c5.24-3.69,7.59-3.52,13.74-2.84-4.39,3.23-6.37,1.3-11.39,3.32l.68,3.6.94,6.21.45,2.52,2.38,3.77,11.34.88,2.27-1.85c2.46-2.6,1.7-2.09,1.1-6.49,3.43,1,1.36.94,3.4.26l1.17-2.5c1-4,1.7-3.34.17-6.86l-4-7.82,8.9-3.68,6.66-3.86c-1.67,5.22-4.45,5.58-3.74,11.57,1,2.69-.2,1.89,3.4,3.14-.54,5-1.78,14.6-6.15,17.26l2.1,8.2c6.07,2.18,6.6-1.17,9.89-5.08l4.74,3.52c3.79-4.2,2.18-4.82,2-10.15-.17-4.22,1.22-5.9,4.74-7.4l4.3,2.18c2.73-5.44,1.87-8,1.87-14.08,0-15.08-7-9.07-13-11.57.43-6.09,6.27-4.39,8.28-11.68-6,1.45-11.42,4.34-18.54-.14L132.58,16c-7.09,2.18-8,3-13.53,2.12-3.28-.51-3.79-1-8.07-2.09l-2-1.11C94.9,14.23,101.65-3.09,86.6.48Z"/><g id="g8130"><path id="path8132" class="cls-1" d="M0,65,1.67,64l3.4-.82,19.14-3.09L26.56,60l.37,1.27.37.2-.06.37.26.34-.34.37-.43-.23-.31.06-.31.48.39.31.23,1-.62.37.51.45-.06.4.17.25-.59,1.28,0,1.16.37,2.21.4.46-.06.73.74,1.45-.17.2-.09-.29-.31.06-.73.4-1.08,1-1.14,1.44-.85.51-1-.22-.68.25L21,75.94l-1.22.6-.82-.68-.17-.31.2-.4-.49-.65-1,.08-.48.26-1-.57-.54.09-.25.39-.09,1-.88.51-.2-.45h-.31l-1.16.39-.71-.11-.62.4-.83.08-.7-.2L8.31,77l-.63-.34L7.4,77l-1.56.54-.48.91,0,1.3.42.71.48.14.06.37.28-.08v.22l-1.78-.28-.8-.62.83-.63.22-1-.22-.2-.2.15-.74-.17L3.6,78,3.54,77,4,75.83l-.2-1.16-.49-.29.2-.62-.17-.85.34-.14.06-.65.2-.2-.57-1.5L3.46,70l-1-2.35-.51-.09-.54-1.16L0,65Zm0,0Z"/><path id="_1" data-name="1" class="cls-2" d="M0,65,1.67,64l3.4-.82,19.14-3.09L26.56,60l.37,1.27.37.2-.06.37.26.34-.34.37-.43-.23-.31.06-.31.48.39.31.23,1-.62.37.51.45-.06.4.17.25-.59,1.28,0,1.16.37,2.21.4.46-.06.73.74,1.45-.17.2-.09-.29-.31.06-.73.4-1.08,1-1.14,1.44-.85.51-1-.22-.68.25L21,75.94l-1.22.6-.82-.68-.17-.31.2-.4-.49-.65-1,.08-.48.26-1-.57-.54.09-.25.39-.09,1-.88.51-.2-.45h-.31l-1.16.39-.71-.11-.62.4-.83.08-.7-.2L8.31,77l-.63-.34L7.4,77l-1.56.54-.48.91,0,1.3.42.71.48.14.06.37.28-.08v.22l-1.78-.28-.8-.62.83-.63.22-1-.22-.2-.2.15-.74-.17L3.6,78,3.54,77,4,75.83l-.2-1.16-.49-.29.2-.62-.17-.85.34-.14.06-.65.2-.2-.57-1.5L3.46,70l-1-2.35-.51-.09-.54-1.16L0,65m0,0Z"/></g><g id="g8381"><polygon id="path8385" class="cls-1" points="27.67 79.66 29.25 80.25 30.16 80 30.39 80.51 28.8 82.26 27.13 83.43 25.03 84.45 24.35 85.24 23.75 85.35 22.9 86.37 19.62 86.46 17.09 87.22 14.65 87.37 14.91 87.08 16.19 86.57 16.81 86.06 18.96 85.27 20.35 83.57 22.68 83.03 23.3 82.58 24.52 82.12 25.09 81.7 25.63 80.9 26.67 80.36 26.84 79.88 27.21 79.66 27.67 79.66"/></g></svg>