<svg id="Layer_1" data-name="Layer 1" xmlns="http://www.w3.org/2000/svg" viewBox="0 0 132.07 221.95"><defs><style>.cls-1{fill:#8cb938;fill-rule:evenodd;}</style></defs><path class="cls-1" d="M38.13,3.86l-1,3.51L34.58,9.81,28.8,11.94l7.74,3.6c.11-.2.25-.49.34-.63,1.73-3.82.57-3.09,2.72-4.33,1.87,3.91.91,7,4,10.4l1.28-2.67c2.29-1.3-3-1.5,3-1-1.76,10.69,4.19,10.83,2,21.12L49,42.66C44,37,43.68,45.27,46.46,47.4a5.2,5.2,0,0,0,1.81.82l.17,6.52.49,4.11c-4.11.4-1.56.54-3.43-.85l-1.39-2.69H42l-2.61,4.08,3.6,6.18c2.16,4,2.05,3.51,0,7.57l-1.16,2.69L43,78.13c1.5,4.05.6,7.62.8,12s1.81,4.57,2.18,8.31c-8-.79-8.51-2.66-9.24,7.37-16.84,4.54-10.49,8.65-17.49,12.93l1.3,9.58-6.55.51c-1.33,5.75-1,5.84-6.6,7.37l.14,8.22L3.26,147.6,0,150.13l2.18,18.76c2.92,2.44,3.74,6.86,6,10.6a66.64,66.64,0,0,0,7.71,9.72c2.21,2.07,2.13,3,4.76,4.91,1.82,1.33,3.94,2.52,5.79,3.85l2.89,2,3.88,5.78L38,211.5c5,1.13,9.16,3,12.59,6.63l3,3.82,2.32-1.5c.71-.45.4-4.62,3.58-6.32a10.08,10.08,0,0,0,1.53-1l1.9-.79,9.52-2.67c3.74-1,7.54-2.66,8.67-4.53l7.74-3.63c-.08-11.62-4.79-7.62-9.32-18.45l-8.17-5.45-2.26-2.29-1.39-2.38c-3.18-1.9-3.89-3.38-6.58-6.75-2.55-3.2-3-6.18-.17-8.84l3.83-5.81-.8-2.07c-1.58-4.11-6.15-4.37-3.51-9.19l2.32-6.12,1-3.09,7.2-15.56c1-1.5.23-.74,1.48-2,.9-.9,1.16-.93,3.8-2.43l4.56-2.75,3.15-5,41.64,9.66,4.3.35,2-25.4c-3.92-2.67-6.13-5.42-6.81-9-.22-1.19.65-2.86-1.53-4.25-4.68-.88-3.31-1.81-5.13-5.53-1.16-2.35-3.2-3.82-5.19-5.72L114.83,54l-1.76-9.21c-.08-.45-1.33-.91-1.67-1.3l-4.34-6.72c-.56-.85.17-2.41.71-3.09l5.84-5c.14-3.57-2.69-7.57-3.91-11.08L109.22,16c-2.81-3.48-.48-6.21-4.14-9.38l-3-.4-3,.4C94.14,8,96,8.9,92.13,10.15c-1.48.48-3.12.06-4.57.31S85,11.65,83.45,12.19l-2,6L74.3,13.58l-2.24-1.81-.4-2.07L70.21,8.48c-1-.82-2.89,0-3.43-.45a61.94,61.94,0,0,0-8.13-5.62L49.75,0C49.41-.08,47,1.62,45.24,2,42.66,2.61,40.2,3.38,38.13,3.86Z"/></svg>