<svg id="Layer_1" data-name="Layer 1" xmlns="http://www.w3.org/2000/svg" viewBox="0 0 158.09 223.54"><defs><style>.cls-1,.cls-2{fill:#8cb938;}.cls-1{fill-rule:evenodd;}</style></defs><path class="cls-1" d="M54.71,9.81,53.6,12.13l3.23,4.28c-3.11,2.21-5.52,2.38-9.21,1.28L39,15.05,36,10.77l-.77-2-7.74,3.63c-3,3.79-13,5.55-18.19,7.2l-1.9.79c-2.27,1.67-3.15,1.73-4.37,4.42C.71,29.91,4.45,26.08,0,29.28l8.76,6.95L13.58,42l.9,6,6.64.57c5-.82,9.89-1.68,13.6,2.18l1.68,2.58-5.11,4.76,6,2.1-1.65,2.13c-3.23,2.23-4.62,2.23-3.71,5.78,6.15,2.12,4.51-3.77,14-4.76,4.06,4.56,3,5.1,4.37,10.74L54,82.18l.57,1.44L57,87l1.42.57c5.19,1.93,2.38,2.5,7.31,1,3.8-1.16,5.08-.76,8.48.88l6.15,3.94,2.3-3.29c5.07,0,9.38,2,13.74,4.2l8.88,3.77c2.49,1.08,7.59,2.86,9.63,4,5.16,2.77,2.22,5,2,8.25-.4,6.49,6.06,6.23-3.91,19.64-4.29,8.16.76,14.6-9,20.66-3.2-3.71-1.27-2.92-3-6.52H96.21c2.27,9.16,4.16,6.86.93,17.35-3.8,12.42,1.28,11.2.71,18.09-.48,5.78-7.48,29-10.37,33.67l-.17,4.37-2.38,6,6.26-1.16,2.32-.63L96,220.48c5.47-5,10-.48,18.22-2.13,6.69-1.33,11.94-4.28,17.86-5.75l9.36-2.75.17-6.89,4.5-.06,2-3.74,9.9-9.75-1.22-17.12L155.59,158l-.85-3-.85-.79-8-7.15,1.59-2.46,4.39-13.07,4-8L136.54,77.81l-.87-3-3.15-1.42-.82-.34c-.57-3.8.2-4.34-2.87-6.15-1.7-1-4.7-1.05-6.77-1.79l-6.58-18.34a7.61,7.61,0,0,1-1.78-1.47L106,39.51c-1.47-1.07-7.14-7-8.59-8.53L77.92,21.63,77.67,19c.31-7.17,1.76-9.24-.26-17.6L73.36,0l-5.7.2c-4,1.13-5.18,1.39-8.56,3.94A12.71,12.71,0,0,0,54.71,9.81Z"/><path id="path6580" class="cls-1" d="M31,67.66l-.51.12-.08-.34.14-.06.45.28Zm0,0Z"/><path id="_1" data-name="1" class="cls-2" d="M31,67.66l-.51.12-.08-.34.14-.06.45.28m0,0Z"/><polygon id="path6584" class="cls-1" points="65.56 111.91 65.51 111.88 65.48 111.77 65.65 111.86 65.56 111.91"/><path id="path6586" class="cls-1" d="M54.88,105.76l.51,0,.14.26v.56l-.31.51.08.34-1.95.51.08-.45.65-.14.46-1.59.34,0Zm0,0Z"/><path id="_1-2" data-name="1" class="cls-2" d="M54.88,105.76l.51,0,.14.26v.56l-.31.51.08.34-1.95.51.08-.45.65-.14.46-1.59.34,0m0,0Z"/><path id="path6588" class="cls-1" d="M62.48,108.34l1,.88.2.37.43.2.39,1.44-.42-.31-.82.11-.31.29-.54-.91-.85.11-.17-.59-.85-.74-.29-.14-.42.11-.48-.4.9-.53.65.11,1.25-1,.2-.45.23.34-.26.39.12.74Zm0,0Z"/><path id="_1-3" data-name="1" class="cls-2" d="M62.48,108.34l1,.88.2.37.43.2.39,1.44-.42-.31-.82.11-.31.29-.54-.91-.85.11-.17-.59-.85-.74-.29-.14-.42.11-.48-.4.9-.53.65.11,1.25-1,.2-.45.23.34-.26.39.12.74m0,0Z"/><path id="path6720" class="cls-1" d="M90.82,132.66l-.23.11-.17-.11-.73.79-.26.88.31.12.29-.2.22.17.29-.51.71-.12.25-.36-.11.68-.48.25.45.74.77-.62.51-.09.31-.26.45,0,.14.19-.45.37-.51.12-.79.71-.66-.2-.59.08-.26-.25-1-.26-.88.14-.22.29-.06,1.44-.34.2-.11.26.37.7-.77.52-.11.48.14.37-.23.08-.31-.34-.26.28v.57l-.17.2L86,138.5l-.34-.2.53-.51,0-.74-.59-.53-.12-.71,1.76-1.7.12-.49.82-.56.62-.26h1l.63-.39.45.25Zm0,0Z"/><path id="_1-4" data-name="1" class="cls-2" d="M90.82,132.66l-.23.11-.17-.11-.73.79-.26.88.31.12.29-.2.22.17.29-.51.71-.12.25-.36-.11.68-.48.25.45.74.77-.62.51-.09.31-.26.45,0,.14.19-.45.37-.51.12-.79.71-.66-.2-.59.08-.26-.25-1-.26-.88.14-.22.29-.06,1.44-.34.2-.11.26.37.7-.77.52-.11.48.14.37-.23.08-.31-.34-.26.28v.57l-.17.2L86,138.5l-.34-.2.53-.51,0-.74-.59-.53-.12-.71,1.76-1.7.12-.49.82-.56.62-.26h1l.63-.39.45.25m0,0Z"/><path id="path6724" class="cls-1" d="M67.61,127l-.17.2-.23-.23.51-.36-.11.39Zm0,0Z"/><path id="_1-5" data-name="1" class="cls-2" d="M67.61,127l-.17.2-.23-.23.51-.36-.11.39m0,0Z"/><polygon id="path6726" class="cls-1" points="90.25 128.15 90.4 128.35 90.11 128.35 89.97 128.64 90.31 128.95 89.83 129.03 89.43 128.21 88.95 128.13 89.15 125.23 89.69 127.3 89.89 127.81 90.25 128.15"/><path id="path6728" class="cls-1" d="M106.38,126.71l-.14-.14v-.06l.14.06v.14Zm0,0Z"/><path id="_1-6" data-name="1" class="cls-2" d="M106.38,126.71l-.14-.14v-.06l.14.06v.14m0,0Z"/><polygon id="path6730" class="cls-1" points="89.23 124.67 88.55 123.36 89.09 122.97 89.4 123.67 89.23 124.67"/><path id="path6742" class="cls-1" d="M75.74,107.74l.17.23-.11.23-.57-.17-.4.25-.22.71-.31.26-.09,1.24,1,.57-.36.37-.94-.14-.2.14-.28.48,0,.71-.37.43.2.79h.34l.17.31.59.09.31.31.71-.4.31.45.29.09.48-.51.57.74.76,0,.37-.19.17.25.45,0,1.48-1,.08-.34-.22-.37,1-.91.14-.73,1,.79.68-.28.26-.4.71.31.28-.08.79.42,1,1.22-.46,0,.12.88-.43.08-.11.43-.57.08-.37.29-1.33-.51-.34.2v.9l.79,1.62.17,1,.23.23.4-.12V119l-1.22.65-.26-.48-.68-.17-.71-.85-.85-.23-.76.25-.2-.51-.54-.34-1.67.2-.74.43-.08,1.22.54.48,0,.57.25.56.4.23.06.51-.2.4.11.53.79.57.09,1.45.28.45.23-.06.14.23.4-.2.76.14-.79,1.17-.06.65-1.22-.23-.34.14-1.27,0-.4.17.29-1.1-.09-.37-.77-.93-1.89-1-.37.35-1.25,0-.71.32-1,.85-.76.14-1.37.88.49-1.25-.34-.6.28-1.36-.23-.34.88-.17.43-.39,0-.6.4-.37,0-1.1.34-.15.06-.31-.37-1v-.71l-.94-1-1-.31-1.58.31.48-.57-.26-.62-.56-.48.17-.2-.06-.65-.26-.29.2-.73-.48-1,.88,0,.45-.22.14.39.49.35.28,1,1,.08.25-.31.32.6.51.34.65-.17,1.93-2-.15-1.58.51-.63.32-1.19-.26-.68-.71-.54,1.22.43,1.33-.48.48,0,.23.19Zm0,0Z"/><path id="_1-7" data-name="1" class="cls-2" d="M75.74,107.74l.17.23-.11.23-.57-.17-.4.25-.22.71-.31.26-.09,1.24,1,.57-.36.37-.94-.14-.2.14-.28.48,0,.71-.37.43.2.79h.34l.17.31.59.09.31.31.71-.4.31.45.29.09.48-.51.57.74.76,0,.37-.19.17.25.45,0,1.48-1,.08-.34-.22-.37,1-.91.14-.73,1,.79.68-.28.26-.4.71.31.28-.08.79.42,1,1.22-.46,0,.12.88-.43.08-.11.43-.57.08-.37.29-1.33-.51-.34.2v.9l.79,1.62.17,1,.23.23.4-.12V119l-1.22.65-.26-.48-.68-.17-.71-.85-.85-.23-.76.25-.2-.51-.54-.34-1.67.2-.74.43-.08,1.22.54.48,0,.57.25.56.4.23.06.51-.2.4.11.53.79.57.09,1.45.28.45.23-.06.14.23.4-.2.76.14-.79,1.17-.06.65-1.22-.23-.34.14-1.27,0-.4.17.29-1.1-.09-.37-.77-.93-1.89-1-.37.35-1.25,0-.71.32-1,.85-.76.14-1.37.88.49-1.25-.34-.6.28-1.36-.23-.34.88-.17.43-.39,0-.6.4-.37,0-1.1.34-.15.06-.31-.37-1v-.71l-.94-1-1-.31-1.58.31.48-.57-.26-.62-.56-.48.17-.2-.06-.65-.26-.29.2-.73-.48-1,.88,0,.45-.22.14.39.49.35.28,1,1,.08.25-.31.32.6.51.34.65-.17,1.93-2-.15-1.58.51-.63.32-1.19-.26-.68-.71-.54,1.22.43,1.33-.48.48,0,.23.19m0,0Z"/><path id="path6776" class="cls-1" d="M88.3,115.48l.23,0,0,.51-.56.09-.34-.74.11-.39-.51-.83h.2l.48,1.08.37.31Zm0,0Z"/><path id="_1-8" data-name="1" class="cls-2" d="M88.3,115.48l.23,0,0,.51-.56.09-.34-.74.11-.39-.51-.83h.2l.48,1.08.37.31m0,0Z"/><path id="path6806" class="cls-1" d="M72.25,107.4l-.62.06-.11-.11.22-.31.51.36Zm0,0Z"/><path id="_1-9" data-name="1" class="cls-2" d="M72.25,107.4l-.62.06-.11-.11.22-.31.51.36m0,0Z"/></svg>