<svg width="300" height="242" viewBox="0 0 300 242" fill="none" xmlns="http://www.w3.org/2000/svg">
<g clip-path="url(#clip0_345_511)">
<path opacity="0.18" d="M67.6942 219.364C86.2049 227.642 108.591 226.766 126.389 217.066C131.914 214.053 137.037 210.24 142.918 207.989C157.173 202.537 173.14 207.083 188.378 206.097C214.11 204.434 236.699 186.524 249.76 164.4C262.821 142.277 267.739 116.37 270.572 90.8662C273.745 62.3512 272.549 28.899 249.785 11.295C231.586 -2.78279 205.93 -1.38399 183.334 3.12568C160.738 7.63534 137.512 14.5662 115.092 9.30127C107.007 7.40949 99.1977 3.94407 90.9003 3.53851C76.1015 2.80997 62.4448 12.0382 52.9369 23.3548C36.6226 42.7631 29.4844 68.5073 28.3276 93.7804C27.1684 119.143 31.6808 144.642 32.3592 169.876C32.9498 191.983 47.28 210.223 67.6942 219.364Z" fill="#54B1A8"/>
<path d="M203.948 39.8901H104.772C96.7251 39.8901 90.2021 46.3811 90.2021 54.3881V164.92C90.2021 172.927 96.7251 179.418 104.772 179.418H203.948C211.995 179.418 218.518 172.927 218.518 164.92V54.3881C218.518 46.3811 211.995 39.8901 203.948 39.8901Z" fill="white"/>
<path d="M90.2021 83.0658L111.156 95.3563L146.478 71.2707L185.538 97.2213L218.518 66.9116V56.8311L185.02 85.6618L146.793 64.0825L110.658 83.5296L90.2021 76.4919V83.0658Z" fill="url(#paint0_linear_345_511)"/>
<path d="M61.5318 94.0715L59.1768 91.1234L84.7037 70.9307L110.658 83.5296L146.703 59.6164L186.841 83.957L227.41 44.8101L230.044 47.5129L187.373 88.6876L146.793 64.0824L110.948 87.8619L85.1918 75.3578L61.5318 94.0715Z" fill="#54B1A8"/>
<path d="M230.115 66.9116L226.339 66.6518L227.696 47.0953L205.84 50.602L205.237 46.884L231.798 42.6245L230.115 66.9116Z" fill="#54B1A8"/>
<path d="M146.713 67.7543C149.744 67.7543 152.201 65.3091 152.201 62.2927C152.201 59.2763 149.744 56.8311 146.713 56.8311C143.681 56.8311 141.224 59.2763 141.224 62.2927C141.224 65.3091 143.681 67.7543 146.713 67.7543Z" fill="#54B1A8"/>
<path d="M146.713 67.7543C149.744 67.7543 152.201 65.3091 152.201 62.2927C152.201 59.2763 149.744 56.8311 146.713 56.8311C143.681 56.8311 141.224 59.2763 141.224 62.2927C141.224 65.3091 143.681 67.7543 146.713 67.7543Z" fill="url(#paint1_linear_345_511)"/>
<path d="M186.563 90.3461C189.594 90.3461 192.051 87.9009 192.051 84.8845C192.051 81.8681 189.594 79.4229 186.563 79.4229C183.532 79.4229 181.074 81.8681 181.074 84.8845C181.074 87.9009 183.532 90.3461 186.563 90.3461Z" fill="#54B1A8"/>
<path d="M186.563 90.3461C189.594 90.3461 192.051 87.9009 192.051 84.8845C192.051 81.8681 189.594 79.4229 186.563 79.4229C183.532 79.4229 181.074 81.8681 181.074 84.8845C181.074 87.9009 183.532 90.3461 186.563 90.3461Z" fill="url(#paint2_linear_345_511)"/>
<path d="M84.7136 79.0683C87.7449 79.0683 90.2022 76.623 90.2022 73.6066C90.2022 70.5903 87.7449 68.145 84.7136 68.145C81.6824 68.145 79.2251 70.5903 79.2251 73.6066C79.2251 76.623 81.6824 79.0683 84.7136 79.0683Z" fill="#54B1A8"/>
<path d="M84.7136 79.0683C87.7449 79.0683 90.2022 76.623 90.2022 73.6066C90.2022 70.5903 87.7449 68.145 84.7136 68.145C81.6824 68.145 79.2251 70.5903 79.2251 73.6066C79.2251 76.623 81.6824 79.0683 84.7136 79.0683Z" fill="url(#paint3_linear_345_511)"/>
<path d="M110.719 91.1234C113.75 91.1234 116.208 88.6782 116.208 85.6618C116.208 82.6454 113.75 80.2002 110.719 80.2002C107.688 80.2002 105.23 82.6454 105.23 85.6618C105.23 88.6782 107.688 91.1234 110.719 91.1234Z" fill="#54B1A8"/>
<path d="M110.719 91.1234C113.75 91.1234 116.208 88.6782 116.208 85.6618C116.208 82.6454 113.75 80.2002 110.719 80.2002C107.688 80.2002 105.23 82.6454 105.23 85.6618C105.23 88.6782 107.688 91.1234 110.719 91.1234Z" fill="url(#paint4_linear_345_511)"/>
</g>
<path d="M164 103C151.144 103 138.577 106.812 127.888 113.954C117.199 121.097 108.868 131.248 103.948 143.126C99.0282 155.003 97.7409 168.072 100.249 180.681C102.757 193.29 108.948 204.872 118.038 213.962C127.129 223.052 138.71 229.243 151.319 231.751C163.928 234.259 176.997 232.972 188.874 228.052C200.752 223.132 210.903 214.801 218.046 204.112C225.188 193.423 229 180.856 229 168C228.967 150.771 222.108 134.257 209.925 122.075C197.743 109.892 181.229 103.033 164 103ZM164 223C153.122 223 142.488 219.774 133.444 213.731C124.399 207.687 117.349 199.098 113.187 189.048C109.024 178.998 107.935 167.939 110.057 157.27C112.179 146.601 117.417 136.801 125.109 129.109C132.801 121.417 142.601 116.179 153.27 114.057C163.939 111.935 174.998 113.024 185.048 117.187C195.098 121.349 203.687 128.399 209.731 137.444C215.774 146.488 219 157.122 219 168C218.983 182.582 213.184 196.562 202.873 206.873C192.562 217.184 178.582 222.983 164 223ZM134 155.5C134 154.017 134.44 152.567 135.264 151.333C136.088 150.1 137.259 149.139 138.63 148.571C140 148.003 141.508 147.855 142.963 148.144C144.418 148.433 145.754 149.148 146.803 150.197C147.852 151.246 148.567 152.582 148.856 154.037C149.145 155.492 148.997 157 148.429 158.37C147.861 159.741 146.9 160.912 145.667 161.736C144.433 162.56 142.983 163 141.5 163C139.511 163 137.603 162.21 136.197 160.803C134.79 159.397 134 157.489 134 155.5ZM179 155.5C179 154.017 179.44 152.567 180.264 151.333C181.088 150.1 182.259 149.139 183.63 148.571C185 148.003 186.508 147.855 187.963 148.144C189.418 148.433 190.754 149.148 191.803 150.197C192.852 151.246 193.567 152.582 193.856 154.037C194.145 155.492 193.997 157 193.429 158.37C192.861 159.741 191.9 160.912 190.667 161.736C189.433 162.56 187.983 163 186.5 163C184.511 163 182.603 162.21 181.197 160.803C179.79 159.397 179 157.489 179 155.5ZM194.313 195.5C194.971 196.645 195.151 198.004 194.811 199.28C194.472 200.556 193.641 201.647 192.5 202.312C191.747 202.769 190.881 203.007 190 203C189.121 203.017 188.255 202.793 187.495 202.352C186.735 201.911 186.11 201.271 185.688 200.5C183.486 196.698 180.323 193.542 176.516 191.348C172.71 189.154 168.394 187.999 164 187.999C159.606 187.999 155.29 189.154 151.484 191.348C147.677 193.542 144.515 196.698 142.313 200.5C142.014 201.122 141.591 201.675 141.069 202.125C140.546 202.575 139.936 202.913 139.278 203.116C138.619 203.319 137.925 203.384 137.24 203.306C136.555 203.228 135.893 203.009 135.297 202.663C134.7 202.318 134.182 201.852 133.774 201.296C133.366 200.74 133.077 200.106 132.926 199.434C132.775 198.761 132.764 198.064 132.895 197.387C133.027 196.71 133.296 196.068 133.688 195.5C136.759 190.179 141.178 185.76 146.499 182.687C151.82 179.615 157.856 177.997 164 177.997C170.144 177.997 176.18 179.615 181.501 182.687C186.822 185.76 191.241 190.179 194.313 195.5Z" fill="#E0F1EF"/>
<path d="M168 97C155.144 97 142.577 100.812 131.888 107.954C121.199 115.097 112.868 125.248 107.948 137.126C103.028 149.003 101.741 162.072 104.249 174.681C106.757 187.29 112.948 198.872 122.038 207.962C131.129 217.052 142.71 223.243 155.319 225.751C167.928 228.259 180.997 226.972 192.874 222.052C204.752 217.132 214.903 208.801 222.046 198.112C229.188 187.423 233 174.856 233 162C232.967 144.771 226.108 128.257 213.925 116.075C201.743 103.892 185.229 97.033 168 97ZM168 217C157.122 217 146.488 213.774 137.444 207.731C128.399 201.687 121.349 193.098 117.187 183.048C113.024 172.998 111.935 161.939 114.057 151.27C116.179 140.601 121.417 130.801 129.109 123.109C136.801 115.417 146.601 110.179 157.27 108.057C167.939 105.935 178.998 107.024 189.048 111.187C199.098 115.349 207.687 122.399 213.731 131.444C219.774 140.488 223 151.122 223 162C222.983 176.582 217.184 190.562 206.873 200.873C196.562 211.184 182.582 216.983 168 217ZM138 149.5C138 148.017 138.44 146.567 139.264 145.333C140.088 144.1 141.259 143.139 142.63 142.571C144 142.003 145.508 141.855 146.963 142.144C148.418 142.433 149.754 143.148 150.803 144.197C151.852 145.246 152.567 146.582 152.856 148.037C153.145 149.492 152.997 151 152.429 152.37C151.861 153.741 150.9 154.912 149.667 155.736C148.433 156.56 146.983 157 145.5 157C143.511 157 141.603 156.21 140.197 154.803C138.79 153.397 138 151.489 138 149.5ZM183 149.5C183 148.017 183.44 146.567 184.264 145.333C185.088 144.1 186.259 143.139 187.63 142.571C189 142.003 190.508 141.855 191.963 142.144C193.418 142.433 194.754 143.148 195.803 144.197C196.852 145.246 197.567 146.582 197.856 148.037C198.145 149.492 197.997 151 197.429 152.37C196.861 153.741 195.9 154.912 194.667 155.736C193.433 156.56 191.983 157 190.5 157C188.511 157 186.603 156.21 185.197 154.803C183.79 153.397 183 151.489 183 149.5ZM198.313 189.5C198.971 190.645 199.151 192.004 198.811 193.28C198.472 194.556 197.641 195.647 196.5 196.312C195.747 196.769 194.881 197.007 194 197C193.121 197.017 192.255 196.793 191.495 196.352C190.735 195.911 190.11 195.271 189.688 194.5C187.486 190.698 184.323 187.542 180.516 185.348C176.71 183.154 172.394 181.999 168 181.999C163.606 181.999 159.29 183.154 155.484 185.348C151.677 187.542 148.515 190.698 146.313 194.5C146.014 195.122 145.591 195.675 145.069 196.125C144.546 196.575 143.936 196.913 143.278 197.116C142.619 197.319 141.925 197.384 141.24 197.306C140.555 197.228 139.893 197.009 139.297 196.663C138.7 196.318 138.182 195.852 137.774 195.296C137.366 194.74 137.077 194.106 136.926 193.434C136.775 192.761 136.764 192.064 136.895 191.387C137.027 190.71 137.296 190.068 137.688 189.5C140.759 184.179 145.178 179.76 150.499 176.687C155.82 173.615 161.856 171.997 168 171.997C174.144 171.997 180.18 173.615 185.501 176.687C190.822 179.76 195.241 184.179 198.313 189.5Z" fill="#54B1A8"/>
<defs>
<linearGradient id="paint0_linear_345_511" x1="153.797" y1="-6.57624" x2="155.557" y2="234.95" gradientUnits="userSpaceOnUse">
<stop offset="0.01"/>
<stop offset="0.08" stop-opacity="0.69"/>
<stop offset="0.21" stop-opacity="0.32"/>
<stop offset="1" stop-opacity="0"/>
</linearGradient>
<linearGradient id="paint1_linear_345_511" x1="130.003" y1="53.3122" x2="235.124" y2="110.366" gradientUnits="userSpaceOnUse">
<stop offset="0.01"/>
<stop offset="0.08" stop-opacity="0.69"/>
<stop offset="0.21" stop-opacity="0.32"/>
<stop offset="1" stop-opacity="0"/>
</linearGradient>
<linearGradient id="paint2_linear_345_511" x1="169.856" y1="75.904" x2="274.974" y2="132.958" gradientUnits="userSpaceOnUse">
<stop offset="0.01"/>
<stop offset="0.08" stop-opacity="0.69"/>
<stop offset="0.21" stop-opacity="0.32"/>
<stop offset="1" stop-opacity="0"/>
</linearGradient>
<linearGradient id="paint3_linear_345_511" x1="68.0064" y1="64.6262" x2="173.125" y2="121.68" gradientUnits="userSpaceOnUse">
<stop offset="0.01"/>
<stop offset="0.08" stop-opacity="0.69"/>
<stop offset="0.21" stop-opacity="0.32"/>
<stop offset="1" stop-opacity="0"/>
</linearGradient>
<linearGradient id="paint4_linear_345_511" x1="94.0118" y1="76.6813" x2="199.131" y2="133.733" gradientUnits="userSpaceOnUse">
<stop offset="0.01"/>
<stop offset="0.08" stop-opacity="0.69"/>
<stop offset="0.21" stop-opacity="0.32"/>
<stop offset="1" stop-opacity="0"/>
</linearGradient>
<clipPath id="clip0_345_511">
<rect width="300" height="225" fill="white"/>
</clipPath>
</defs>
</svg>
