<svg width="257" height="25" viewBox="0 0 257 25" fill="none" xmlns="http://www.w3.org/2000/svg">
<path d="M0.556818 24V0.727272H4.06818V20.9773H14.6136V24H0.556818ZM21.7727 24H18.0455L26.4205 0.727272H30.4773L38.8523 24H35.125L28.5455 4.95454H28.3636L21.7727 24ZM22.3977 14.8864H34.4886V17.8409H22.3977V14.8864ZM42.2131 24V0.727272H50.5085C52.3191 0.727272 53.8191 1.05682 55.0085 1.71591C56.1979 2.375 57.0881 3.27651 57.679 4.42045C58.2699 5.55682 58.5653 6.83712 58.5653 8.26136C58.5653 9.69318 58.2661 10.9811 57.6676 12.125C57.0767 13.2614 56.1828 14.1629 54.9858 14.8295C53.7964 15.4886 52.3002 15.8182 50.4972 15.8182H44.7926V12.8409H50.179C51.3229 12.8409 52.2509 12.6439 52.9631 12.25C53.6752 11.8485 54.1979 11.303 54.5312 10.6136C54.8646 9.92424 55.0312 9.14015 55.0312 8.26136C55.0312 7.38258 54.8646 6.60227 54.5312 5.92045C54.1979 5.23864 53.6714 4.70454 52.9517 4.31818C52.2396 3.93182 51.3002 3.73864 50.1335 3.73864H45.7244V24H42.2131ZM62.179 24H58.4517L66.8267 0.727272H70.8835L79.2585 24H75.5312L68.9517 4.95454H68.7699L62.179 24ZM62.804 14.8864H74.8949V17.8409H62.804V14.8864ZM82.6193 24V0.727272H86.1307V20.9773H96.6761V24H82.6193ZM103.835 24H100.108L108.483 0.727272H112.54L120.915 24H117.188L110.608 4.95454H110.426L103.835 24ZM104.46 14.8864H116.551V17.8409H104.46V14.8864ZM124.276 24V0.727272H132.571C134.382 0.727272 135.882 1.05682 137.071 1.71591C138.26 2.375 139.151 3.27651 139.741 4.42045C140.332 5.55682 140.628 6.83712 140.628 8.26136C140.628 9.69318 140.329 10.9811 139.73 12.125C139.139 13.2614 138.245 14.1629 137.048 14.8295C135.859 15.4886 134.363 15.8182 132.56 15.8182H126.855V12.8409H132.241C133.385 12.8409 134.313 12.6439 135.026 12.25C135.738 11.8485 136.26 11.303 136.594 10.6136C136.927 9.92424 137.094 9.14015 137.094 8.26136C137.094 7.38258 136.927 6.60227 136.594 5.92045C136.26 5.23864 135.734 4.70454 135.014 4.31818C134.302 3.93182 133.363 3.73864 132.196 3.73864H127.787V24H124.276ZM144.241 24H140.514L148.889 0.727272H152.946L161.321 24H157.594L151.014 4.95454H150.832L144.241 24ZM144.866 14.8864H156.957V17.8409H144.866V14.8864ZM176.858 24H170.812L178.665 0.727272H186.153L194.006 24H187.96L182.494 6.59091H182.312L176.858 24ZM176.051 14.8409H188.688V19.1136H176.051V14.8409ZM196.511 24V0.727272H206.125C207.867 0.727272 209.371 1.06818 210.636 1.75C211.909 2.42424 212.89 3.36742 213.58 4.57954C214.269 5.78409 214.614 7.18561 214.614 8.78409C214.614 10.3902 214.261 11.7955 213.557 13C212.86 14.197 211.864 15.125 210.568 15.7841C209.273 16.4432 207.735 16.7727 205.955 16.7727H200.023V12.3409H204.909C205.758 12.3409 206.466 12.1932 207.034 11.8977C207.61 11.6023 208.045 11.1894 208.341 10.6591C208.636 10.1212 208.784 9.49621 208.784 8.78409C208.784 8.06439 208.636 7.44318 208.341 6.92045C208.045 6.39015 207.61 5.98106 207.034 5.69318C206.458 5.4053 205.75 5.26136 204.909 5.26136H202.136V24H196.511ZM217.386 24V0.727272H227C228.742 0.727272 230.246 1.06818 231.511 1.75C232.784 2.42424 233.765 3.36742 234.455 4.57954C235.144 5.78409 235.489 7.18561 235.489 8.78409C235.489 10.3902 235.136 11.7955 234.432 13C233.735 14.197 232.739 15.125 231.443 15.7841C230.148 16.4432 228.61 16.7727 226.83 16.7727H220.898V12.3409H225.784C226.633 12.3409 227.341 12.1932 227.909 11.8977C228.485 11.6023 228.92 11.1894 229.216 10.6591C229.511 10.1212 229.659 9.49621 229.659 8.78409C229.659 8.06439 229.511 7.44318 229.216 6.92045C228.92 6.39015 228.485 5.98106 227.909 5.69318C227.333 5.4053 226.625 5.26136 225.784 5.26136H223.011V24H217.386ZM250.841 7.70454C250.765 6.87121 250.428 6.22348 249.83 5.76136C249.239 5.29167 248.394 5.05682 247.295 5.05682C246.568 5.05682 245.962 5.15151 245.477 5.34091C244.992 5.5303 244.629 5.79167 244.386 6.125C244.144 6.45076 244.019 6.82576 244.011 7.25C243.996 7.59848 244.064 7.9053 244.216 8.17045C244.375 8.43561 244.602 8.67045 244.898 8.875C245.201 9.07197 245.564 9.24621 245.989 9.39773C246.413 9.54924 246.89 9.68182 247.42 9.79545L249.42 10.25C250.572 10.5 251.587 10.8333 252.466 11.25C253.352 11.6667 254.095 12.1629 254.693 12.7386C255.299 13.3144 255.758 13.9773 256.068 14.7273C256.379 15.4773 256.538 16.3182 256.545 17.25C256.538 18.7197 256.167 19.9811 255.432 21.0341C254.697 22.0871 253.64 22.8939 252.261 23.4545C250.89 24.0152 249.235 24.2955 247.295 24.2955C245.348 24.2955 243.652 24.0038 242.205 23.4205C240.758 22.8371 239.633 21.9508 238.83 20.7614C238.027 19.572 237.614 18.0682 237.591 16.25H242.977C243.023 17 243.223 17.625 243.58 18.125C243.936 18.625 244.424 19.0038 245.045 19.2614C245.674 19.5189 246.402 19.6477 247.227 19.6477C247.985 19.6477 248.629 19.5455 249.159 19.3409C249.697 19.1364 250.11 18.8523 250.398 18.4886C250.686 18.125 250.833 17.7083 250.841 17.2386C250.833 16.7992 250.697 16.4242 250.432 16.1136C250.167 15.7955 249.758 15.5227 249.205 15.2955C248.659 15.0606 247.962 14.8447 247.114 14.6477L244.682 14.0795C242.667 13.6174 241.08 12.8712 239.92 11.8409C238.761 10.803 238.186 9.40151 238.193 7.63636C238.186 6.19697 238.572 4.93561 239.352 3.85227C240.133 2.76894 241.212 1.92424 242.591 1.31818C243.97 0.712121 245.542 0.40909 247.307 0.40909C249.11 0.40909 250.674 0.715908 252 1.32954C253.333 1.93561 254.367 2.78788 255.102 3.88636C255.837 4.98485 256.212 6.25757 256.227 7.70454H250.841Z" fill="white"/>
</svg>
