<svg width="25" height="24" viewBox="0 0 25 24" fill="none" xmlns="http://www.w3.org/2000/svg">
<path d="M9.5 19V13C9.5 12.4696 9.28929 11.9609 8.91421 11.5858C8.53914 11.2107 8.03043 11 7.5 11H5.5C4.96957 11 4.46086 11.2107 4.08579 11.5858C3.71071 11.9609 3.5 12.4696 3.5 13V19C3.5 19.5304 3.71071 20.0391 4.08579 20.4142C4.46086 20.7893 4.96957 21 5.5 21H7.5C8.03043 21 8.53914 20.7893 8.91421 20.4142C9.28929 20.0391 9.5 19.5304 9.5 19ZM9.5 19V9C9.5 8.46957 9.71071 7.96086 10.0858 7.58579C10.4609 7.21071 10.9696 7 11.5 7H13.5C14.0304 7 14.5391 7.21071 14.9142 7.58579C15.2893 7.96086 15.5 8.46957 15.5 9V19M9.5 19C9.5 19.5304 9.71071 20.0391 10.0858 20.4142C10.4609 20.7893 10.9696 21 11.5 21H13.5C14.0304 21 14.5391 20.7893 14.9142 20.4142C15.2893 20.0391 15.5 19.5304 15.5 19M15.5 19V5C15.5 4.46957 15.7107 3.96086 16.0858 3.58579C16.4609 3.21071 16.9696 3 17.5 3H19.5C20.0304 3 20.5391 3.21071 20.9142 3.58579C21.2893 3.96086 21.5 4.46957 21.5 5V19C21.5 19.5304 21.2893 20.0391 20.9142 20.4142C20.5391 20.7893 20.0304 21 19.5 21H17.5C16.9696 21 16.4609 20.7893 16.0858 20.4142C15.7107 20.0391 15.5 19.5304 15.5 19Z" stroke="#B3B3B3" stroke-width="2" stroke-linecap="round" stroke-linejoin="round"/>
</svg>
